<svg width="40" height="40" viewBox="0 0 40 40" fill="none" xmlns="http://www.w3.org/2000/svg">
<path d="M24.6425 6.07455C24.8988 6.39048 25.0294 6.81676 25.2907 7.6693L31 26.2939C28.8555 25.1888 26.5538 24.4149 24.1743 23.9991L20.457 11.5245C20.4274 11.425 20.3661 11.3377 20.2823 11.2757C20.1985 11.2136 20.0968 11.1802 19.9923 11.1804C19.8878 11.1805 19.7862 11.2143 19.7026 11.2766C19.6191 11.3388 19.5581 11.4263 19.5287 11.5259L15.8564 23.9928C13.4662 24.4067 11.1539 25.1818 9 26.291L14.7372 7.66495C14.9994 6.81394 15.1305 6.38835 15.3868 6.07302C15.613 5.79465 15.9073 5.57847 16.2415 5.44508C16.6201 5.29395 17.0682 5.29395 17.9645 5.29395H22.0622C22.9597 5.29395 23.4084 5.29395 23.7874 5.44534C24.1218 5.57905 24.4162 5.79568 24.6424 6.07455" fill="#68687A"/>
<path d="M25.8057 26.8839C24.8568 27.6952 22.9628 28.2486 20.7811 28.2486C18.1036 28.2486 15.8593 27.415 15.2638 26.2939C15.0508 26.9364 15.0031 27.6718 15.0031 28.1415C15.0031 28.1415 14.8628 30.4481 16.4672 32.0525C16.4672 31.2194 17.1425 30.5441 17.9756 30.5441C19.4035 30.5441 19.4017 31.7898 19.4005 32.8005L19.4004 32.8907C19.4004 34.4247 20.3379 35.7397 21.6713 36.2939C21.4661 35.8715 21.3597 35.4079 21.3604 34.9383C21.3604 33.4752 22.2193 32.9305 23.2176 32.2974C24.0118 31.7937 24.8944 31.234 25.5025 30.1113C25.83 29.5065 26.0011 28.8293 26 28.1415C26 27.7031 25.9319 27.2805 25.8057 26.8839Z" fill="#B2B2BD"/>
</svg>
