<svg width="40" height="40" viewBox="0 0 40 40" fill="none" xmlns="http://www.w3.org/2000/svg">
<path d="M30.3104 15.3693C29.9698 15.2544 29.6264 15.1479 29.2804 15.0501C29.3385 14.8165 29.392 14.5857 29.4395 14.359C30.2193 10.6365 29.7095 7.63758 27.9684 6.65018C26.299 5.7036 23.5689 6.69063 20.8116 9.05057C20.5399 9.28357 20.2742 9.52328 20.0147 9.76948C19.8411 9.60576 19.6643 9.44523 19.4846 9.28795C16.5949 6.76463 13.6984 5.70114 11.9591 6.69137C10.2913 7.6409 9.79737 10.4601 10.4994 13.988C10.5692 14.3374 10.6481 14.685 10.7359 15.0305C10.3259 15.1451 9.93025 15.267 9.55162 15.3968C6.16362 16.5586 4 18.3791 4 20.2674C4 22.2178 6.32275 24.174 9.8515 25.3602C10.1376 25.4559 10.426 25.5447 10.7166 25.6263C10.6223 25.9984 10.5385 26.373 10.4654 26.7497C9.79612 30.2164 10.3187 32.969 11.9821 33.9125C13.7001 34.8869 16.5836 33.8854 19.3912 31.4717C19.6189 31.2754 19.8416 31.0736 20.059 30.8665C20.3399 31.133 20.6284 31.3919 20.924 31.6427C23.6437 33.9442 26.3298 34.8736 27.9915 33.9275C29.7079 32.9503 30.2658 29.9933 29.5415 26.3956C29.4844 26.1138 29.4205 25.8333 29.3496 25.5545C29.5521 25.4955 29.7509 25.4348 29.9446 25.3716C33.6131 24.1763 36 22.2438 36 20.2674C36 18.3722 33.7665 16.5394 30.3104 15.3693ZM29.5147 24.0956C29.3398 24.1525 29.1602 24.2074 28.9772 24.2609C28.5722 23 28.0257 21.6593 27.3569 20.274C27.9951 18.9217 28.5206 17.5981 28.9142 16.3454C29.2416 16.4386 29.5592 16.5368 29.8655 16.6404C32.8267 17.6431 34.633 19.1253 34.633 20.2674C34.633 21.484 32.6822 23.0633 29.5147 24.0956ZM28.2005 26.6567C28.5208 28.2475 28.5664 29.6858 28.3542 30.8103C28.1637 31.8207 27.7805 32.4942 27.3065 32.764C26.2981 33.3381 24.1415 32.5919 21.8156 30.6235C21.5407 30.3904 21.2724 30.1498 21.011 29.9019C21.9128 28.9321 22.8139 27.8047 23.6934 26.5525C25.2404 26.4175 26.7019 26.1967 28.0273 25.8954C28.0911 26.1478 28.1489 26.4017 28.2005 26.6567ZM14.9095 32.6648C13.9242 33.007 13.1395 33.0168 12.6651 32.7478C11.6557 32.1753 11.2361 29.9651 11.8085 27.0005C11.8765 26.6501 11.9544 26.3017 12.0421 25.9557C13.3529 26.2409 14.8038 26.4459 16.3544 26.5696C17.2399 27.7949 18.167 28.921 19.1014 29.9072C18.9028 30.0962 18.6995 30.2803 18.4917 30.4594C17.2501 31.5267 16.006 32.284 14.9095 32.6648ZM10.2937 24.0881C8.73337 23.5635 7.44475 22.8819 6.5615 22.138C5.76775 21.4696 5.36713 20.8059 5.36713 20.2674C5.36713 19.1215 7.10425 17.6598 10.0016 16.6664C10.3533 16.5459 10.7213 16.4322 11.1031 16.3255C11.5036 17.6064 12.0289 18.9458 12.6628 20.3001C12.0206 21.6745 11.4879 23.0353 11.0835 24.3314C10.8183 24.2566 10.5549 24.1755 10.2937 24.0881ZM11.841 13.7298C11.2396 10.7072 11.639 8.42718 12.6441 7.85492C13.7146 7.24542 16.0819 8.11443 18.577 10.2933C18.7397 10.4357 18.8998 10.581 19.0571 10.7291C18.1274 11.711 17.2087 12.8288 16.3311 14.0468C14.8261 14.184 13.3855 14.4043 12.061 14.6994C11.9794 14.3781 11.906 14.0547 11.841 13.7298ZM25.6444 17.082C25.3315 16.5506 25.0071 16.0258 24.6712 15.5081C25.6922 15.6351 26.6705 15.8036 27.5891 16.0097C27.3134 16.879 26.9696 17.7879 26.565 18.7197C26.2692 18.1678 25.9623 17.6218 25.6444 17.082ZM20.0154 11.6901C20.6459 12.3619 21.2774 13.1119 21.8985 13.9257C20.6385 13.8672 19.3764 13.8669 18.1164 13.925C18.7381 13.1187 19.375 12.3696 20.0154 11.6901ZM14.3503 17.0911C14.0363 17.6266 13.7351 18.1692 13.4469 18.7185C13.0489 17.79 12.7083 16.877 12.4301 15.9953C13.3431 15.7944 14.3168 15.6302 15.3313 15.5055C14.9917 16.0264 14.6646 16.5551 14.3503 17.0911ZM15.3604 25.125C14.3123 25.0099 13.324 24.8542 12.4113 24.6587C12.6938 23.7613 13.0419 22.8289 13.4485 21.8804C13.7379 22.4301 14.0403 22.9731 14.3556 23.5088C14.6799 24.0595 15.0156 24.599 15.3604 25.125ZM20.0531 28.9396C19.4051 28.2522 18.7589 27.4916 18.1278 26.6736C18.7405 26.6972 19.3651 26.7092 20 26.7092C20.6523 26.7092 21.297 26.6949 21.9316 26.6671C21.3085 27.4998 20.6794 28.2615 20.0531 28.9396ZM26.5779 21.832C27.0056 22.7909 27.3661 23.7184 27.6524 24.6005C26.7246 24.8087 25.7229 24.9764 24.6674 25.1009C25.0056 24.5736 25.3331 24.0397 25.6497 23.4996C25.9717 22.9506 26.2811 22.3946 26.5779 21.832ZM24.4656 22.8279C23.9809 23.656 23.4689 24.4684 22.9305 25.2638C21.9552 25.3317 20.9777 25.3655 20 25.365C19.0041 25.365 18.0355 25.3345 17.1027 25.275C16.5503 24.4814 16.0285 23.6676 15.5386 22.8353C15.051 22.0073 14.5957 21.1615 14.1734 20.2995C14.5946 19.4374 15.0487 18.5911 15.5346 17.7626L15.5345 17.7627C16.0202 16.9339 16.5378 16.1236 17.0861 15.3334C18.0378 15.2626 19.0136 15.2257 19.9999 15.2257C20.9906 15.2257 21.9679 15.263 22.9193 15.3343C23.462 16.1232 23.9763 16.9308 24.4611 17.7554C24.9487 18.5822 25.4088 19.4243 25.8406 20.2805C25.4132 21.1454 24.9546 21.9951 24.4656 22.8279ZM27.2856 7.81485C28.3571 8.42263 28.7739 10.8735 28.1006 14.0876C28.0576 14.2927 28.0094 14.5015 27.9569 14.7133C26.6291 14.4119 25.1875 14.1878 23.6781 14.0485C22.7989 12.8171 21.8878 11.6976 20.9731 10.7284C21.2128 10.5011 21.4582 10.2798 21.7091 10.0645C24.0716 8.04264 26.2796 7.24432 27.2856 7.81485ZM20 17.4572C21.5781 17.4572 22.8575 18.7154 22.8575 20.2674C22.8575 21.8195 21.5781 23.0777 20 23.0777C18.4219 23.0777 17.1425 21.8195 17.1425 20.2674C17.1425 18.7154 18.4219 17.4572 20 17.4572Z" fill="#68687A"/>
</svg>
