<svg width="40" height="40" viewBox="0 0 40 40" fill="none" xmlns="http://www.w3.org/2000/svg">
<path d="M22.4766 33.5356C21.749 34.4349 20.2739 33.9421 20.2564 32.7939L20 16H31.5051C33.5889 16 34.7511 18.3623 33.4554 19.9642L22.4766 33.5356Z" fill="url(#paint0_linear_1161_950)"/>
<path d="M22.4766 33.5356C21.749 34.4349 20.2739 33.9421 20.2564 32.7939L20 16H31.5051C33.5889 16 34.7511 18.3623 33.4554 19.9642L22.4766 33.5356Z" fill="#68687A"/>
<path d="M17.6432 6.46451C18.3783 5.5651 19.8688 6.0578 19.8865 7.20607L20 24H8.52094C6.41541 24 5.24101 21.6377 6.55034 20.0358L17.6432 6.46451Z" fill="#B2B2BD"/>
<defs>
<linearGradient id="paint0_linear_1161_950" x1="312.068" y1="388.366" x2="968.048" y2="668.665" gradientUnits="userSpaceOnUse">
<stop stop-color="#249361"/>
<stop offset="1" stop-color="#3ECF8E"/>
</linearGradient>
</defs>
</svg>
