<svg width="40" height="40" viewBox="0 0 40 40" fill="none" xmlns="http://www.w3.org/2000/svg">
<g clip-path="url(#clip0_1161_946)">
<path d="M20.1855 7.34766C14.8523 7.34766 11.5188 10.0144 10.1855 15.3477C12.1855 12.6809 14.5188 11.6809 17.1855 12.3477C18.707 12.728 19.7945 13.8319 20.9982 15.0536C22.9591 17.0441 25.2285 19.3477 30.1855 19.3477C35.5188 19.3477 38.8523 16.6809 40.1855 11.3477C38.1855 14.0144 35.8523 15.0144 33.1855 14.3477C31.6641 13.9673 30.5766 12.8634 29.3729 11.6417C27.412 9.65125 25.1426 7.34766 20.1855 7.34766ZM10.1855 19.3477C4.85227 19.3477 1.51883 22.0144 0.185547 27.3477C2.18555 24.6809 4.51883 23.6809 7.18555 24.3477C8.70695 24.728 9.79445 25.8319 10.9982 27.0536C12.9591 29.0441 15.2285 31.3477 20.1855 31.3477C25.5188 31.3477 28.8523 28.6809 30.1855 23.3477C28.1855 26.0144 25.8523 27.0144 23.1855 26.3477C21.6641 25.9673 20.5766 24.8634 19.3729 23.6417C17.412 21.6512 15.1426 19.3477 10.1855 19.3477Z" fill="#68687A"/>
</g>
<defs>
<clipPath id="clip0_1161_946">
<rect width="40" height="40" fill="white"/>
</clipPath>
</defs>
</svg>
