<svg width="40" height="25" viewBox="0 0 40 25" fill="none" xmlns="http://www.w3.org/2000/svg">
<path d="M20.1875 0.30957C14.8542 0.30957 11.5208 2.97629 10.1875 8.30957C12.1875 5.64285 14.5208 4.64285 17.1875 5.30957C18.7089 5.68988 19.7964 6.79379 21.0002 8.01551C22.9611 10.006 25.2305 12.3096 30.1875 12.3096C35.5208 12.3096 38.8542 9.64285 40.1875 4.30957C38.1875 6.97629 35.8542 7.97629 33.1875 7.30957C31.6661 6.92926 30.5786 5.82535 29.3748 4.60363C27.4139 2.61316 25.1445 0.30957 20.1875 0.30957ZM10.1875 12.3096C4.85422 12.3096 1.52078 14.9763 0.1875 20.3096C2.1875 17.6429 4.52078 16.6429 7.1875 17.3096C8.70891 17.6899 9.79641 18.7938 11.0002 20.0155C12.9611 22.006 15.2305 24.3096 20.1875 24.3096C25.5208 24.3096 28.8542 21.6429 30.1875 16.3096C28.1875 18.9763 25.8542 19.9763 23.1875 19.3096C21.6661 18.9293 20.5786 17.8254 19.3748 16.6036C17.4139 14.6132 15.1445 12.3096 10.1875 12.3096Z" fill="#68687A"/>
</svg>
