<svg width="40" height="41" viewBox="0 0 40 41" fill="none" xmlns="http://www.w3.org/2000/svg">
<path d="M15.0007 37.3729C13.3895 37.3729 11.8757 37.0673 10.459 36.4562C9.04232 35.8451 7.80621 35.0118 6.75065 33.9562C5.6951 32.9007 4.86176 31.6646 4.25065 30.2479C3.63954 28.8312 3.33398 27.3173 3.33398 25.7062C3.33398 23.4562 3.91732 21.4007 5.08398 19.5396C6.25065 17.6784 7.77843 16.2618 9.66732 15.2896C10.2229 14.2062 10.9107 13.2546 11.7307 12.4346C12.5507 11.6146 13.5018 10.9273 14.584 10.3729C15.5007 8.484 16.9034 6.95622 18.7923 5.78955C20.6812 4.62288 22.7507 4.03955 25.0007 4.03955C26.6118 4.03955 28.1257 4.34511 29.5423 4.95622C30.959 5.56733 32.1951 6.40066 33.2507 7.45622C34.3062 8.51177 35.1395 9.74788 35.7507 11.1646C36.3618 12.5812 36.6673 14.0951 36.6673 15.7062C36.6673 18.0673 36.084 20.1507 34.9173 21.9562C33.7507 23.7618 32.2229 25.1507 30.334 26.1229C29.7784 27.2062 29.0912 28.1579 28.2723 28.9779C27.4534 29.7979 26.5018 30.4851 25.4173 31.0396C24.4451 32.9284 23.0284 34.4562 21.1673 35.6229C19.3062 36.7896 17.2507 37.3729 15.0007 37.3729ZM15.0007 34.0396C15.9173 34.0396 16.7995 33.9007 17.6473 33.6229C18.4951 33.3451 19.2795 32.9284 20.0007 32.3729C18.3895 32.3729 16.8757 32.0673 15.459 31.4562C14.0423 30.8451 12.8062 30.0118 11.7507 28.9562C10.6951 27.9007 9.86176 26.6646 9.25065 25.2479C8.63954 23.8312 8.33398 22.3173 8.33398 20.7062C7.77843 21.4284 7.36176 22.2134 7.08398 23.0612C6.80621 23.909 6.66732 24.7907 6.66732 25.7062C6.66732 26.8729 6.88954 27.9562 7.33398 28.9562C7.77843 29.9562 8.37565 30.8312 9.12565 31.5812C9.87565 32.3312 10.7507 32.9284 11.7507 33.3729C12.7507 33.8173 13.834 34.0396 15.0007 34.0396ZM20.0007 29.0396C20.9173 29.0396 21.8134 28.9007 22.689 28.6229C23.5645 28.3451 24.3629 27.9284 25.084 27.3729C23.4451 27.3729 21.9173 27.0601 20.5007 26.4346C19.084 25.809 17.8479 24.969 16.7923 23.9146C15.7368 22.8601 14.8968 21.624 14.2723 20.2062C13.6479 18.7884 13.3351 17.2607 13.334 15.6229C12.7784 16.3451 12.3618 17.144 12.084 18.0195C11.8062 18.8951 11.6673 19.7907 11.6673 20.7062C11.6673 21.8729 11.8829 22.9562 12.314 23.9562C12.7451 24.9562 13.349 25.8312 14.1257 26.5812C14.8757 27.359 15.7507 27.9629 16.7507 28.3929C17.7507 28.8229 18.834 29.0384 20.0007 29.0396ZM25.0007 24.0396C25.5007 24.0396 25.9801 23.9979 26.439 23.9146C26.8979 23.8312 27.3629 23.7062 27.834 23.5396C28.4451 21.8729 28.5357 20.2684 28.1057 18.7262C27.6757 17.184 26.9323 15.8857 25.8757 14.8312C24.819 13.7768 23.5207 13.0334 21.9806 12.6012C20.4407 12.169 18.8362 12.2596 17.1673 12.8729C17.0007 13.3451 16.8757 13.8107 16.7923 14.2695C16.709 14.7284 16.6673 15.2073 16.6673 15.7062C16.6673 16.8729 16.8829 17.9562 17.314 18.9562C17.7451 19.9562 18.349 20.8312 19.1257 21.5812C19.8757 22.359 20.7507 22.9634 21.7507 23.3946C22.7507 23.8257 23.834 24.0407 25.0007 24.0396ZM31.6673 20.7896C32.2229 20.0673 32.6395 19.269 32.9173 18.3946C33.1951 17.5201 33.334 16.624 33.334 15.7062C33.334 14.5396 33.119 13.4562 32.689 12.4562C32.259 11.4562 31.6545 10.5812 30.8757 9.83122C30.1257 9.05344 29.2507 8.44955 28.2507 8.01955C27.2507 7.58955 26.1673 7.374 25.0007 7.37288C24.0284 7.37288 23.1184 7.51177 22.2707 7.78955C21.4229 8.06733 20.6384 8.48399 19.9173 9.03955C21.5562 9.03955 23.084 9.35233 24.5007 9.97788C25.9173 10.6034 27.1534 11.4434 28.209 12.4979C29.2645 13.5523 30.1051 14.7884 30.7306 16.2062C31.3562 17.624 31.6684 19.1518 31.6673 20.7896Z" fill="#0013A3"/>
</svg>
