<svg width="33" height="33" viewBox="0 0 33 33" fill="none" xmlns="http://www.w3.org/2000/svg">
<rect x="0.666016" y="0.706055" width="32" height="32" rx="8" fill="#ECEDF9"/>
<path d="M14 27C13.0333 27 12.125 26.8167 11.275 26.45C10.425 26.0833 9.68333 25.5833 9.05 24.95C8.41667 24.3167 7.91667 23.575 7.55 22.725C7.18333 21.875 7 20.9667 7 20C7 18.65 7.35 17.4167 8.05 16.3C8.75 15.1833 9.66667 14.3333 10.8 13.75C11.1333 13.1 11.546 12.529 12.038 12.037C12.53 11.545 13.1007 11.1327 13.75 10.8C14.3 9.66667 15.1417 8.75 16.275 8.05C17.4083 7.35 18.65 7 20 7C20.9667 7 21.875 7.18333 22.725 7.55C23.575 7.91667 24.3167 8.41667 24.95 9.05C25.5833 9.68333 26.0833 10.425 26.45 11.275C26.8167 12.125 27 13.0333 27 14C27 15.4167 26.65 16.6667 25.95 17.75C25.25 18.8333 24.3333 19.6667 23.2 20.25C22.8667 20.9 22.4543 21.471 21.963 21.963C21.4717 22.455 20.9007 22.8673 20.25 23.2C19.6667 24.3333 18.8167 25.25 17.7 25.95C16.5833 26.65 15.35 27 14 27ZM14 25C14.55 25 15.0793 24.9167 15.588 24.75C16.0967 24.5833 16.5673 24.3333 17 24C16.0333 24 15.125 23.8167 14.275 23.45C13.425 23.0833 12.6833 22.5833 12.05 21.95C11.4167 21.3167 10.9167 20.575 10.55 19.725C10.1833 18.875 10 17.9667 10 17C9.66667 17.4333 9.41667 17.9043 9.25 18.413C9.08333 18.9217 9 19.4507 9 20C9 20.7 9.13333 21.35 9.4 21.95C9.66667 22.55 10.025 23.075 10.475 23.525C10.925 23.975 11.45 24.3333 12.05 24.6C12.65 24.8667 13.3 25 14 25ZM17 22C17.55 22 18.0877 21.9167 18.613 21.75C19.1383 21.5833 19.6173 21.3333 20.05 21C19.0667 21 18.15 20.8123 17.3 20.437C16.45 20.0617 15.7083 19.5577 15.075 18.925C14.4417 18.2923 13.9377 17.5507 13.563 16.7C13.1883 15.8493 13.0007 14.9327 13 13.95C12.6667 14.3833 12.4167 14.8627 12.25 15.388C12.0833 15.9133 12 16.4507 12 17C12 17.7 12.1293 18.35 12.388 18.95C12.6467 19.55 13.009 20.075 13.475 20.525C13.925 20.9917 14.45 21.354 15.05 21.612C15.65 21.87 16.3 21.9993 17 22ZM20 19C20.3 19 20.5877 18.975 20.863 18.925C21.1383 18.875 21.4173 18.8 21.7 18.7C22.0667 17.7 22.121 16.7373 21.863 15.812C21.605 14.8867 21.159 14.1077 20.525 13.475C19.891 12.8423 19.112 12.3963 18.188 12.137C17.264 11.8777 16.3013 11.932 15.3 12.3C15.2 12.5833 15.125 12.8627 15.075 13.138C15.025 13.4133 15 13.7007 15 14C15 14.7 15.1293 15.35 15.388 15.95C15.6467 16.55 16.009 17.075 16.475 17.525C16.925 17.9917 17.45 18.3543 18.05 18.613C18.65 18.8717 19.3 19.0007 20 19ZM24 17.05C24.3333 16.6167 24.5833 16.1377 24.75 15.613C24.9167 15.0883 25 14.5507 25 14C25 13.3 24.871 12.65 24.613 12.05C24.355 11.45 23.9923 10.925 23.525 10.475C23.075 10.0083 22.55 9.646 21.95 9.388C21.35 9.13 20.7 9.00067 20 9C19.4167 9 18.8707 9.08333 18.362 9.25C17.8533 9.41667 17.3827 9.66667 16.95 10C17.9333 10 18.85 10.1877 19.7 10.563C20.55 10.9383 21.2917 11.4423 21.925 12.075C22.5583 12.7077 23.0627 13.4493 23.438 14.3C23.8133 15.1507 24.0007 16.0673 24 17.05Z" fill="#5567F2"/>
</svg>
