<svg width="32" height="33" viewBox="0 0 32 33" fill="none" xmlns="http://www.w3.org/2000/svg">
<rect y="0.961914" width="32" height="32" rx="8" fill="#4343EE"/>
<path d="M13.3359 27.2559C12.3693 27.2559 11.4609 27.0725 10.6109 26.7059C9.76094 26.3392 9.01927 25.8392 8.38594 25.2059C7.7526 24.5725 7.2526 23.8309 6.88594 22.9809C6.51927 22.1309 6.33594 21.2225 6.33594 20.2559C6.33594 18.9059 6.68594 17.6725 7.38594 16.5559C8.08594 15.4392 9.0026 14.5892 10.1359 14.0059C10.4693 13.3559 10.8819 12.7849 11.3739 12.2929C11.8659 11.8009 12.4366 11.3885 13.0859 11.0559C13.6359 9.92253 14.4776 9.00586 15.6109 8.30586C16.7443 7.60586 17.9859 7.25586 19.3359 7.25586C20.3026 7.25586 21.2109 7.43919 22.0609 7.80586C22.9109 8.17253 23.6526 8.67253 24.2859 9.30586C24.9193 9.93919 25.4193 10.6809 25.7859 11.5309C26.1526 12.3809 26.3359 13.2892 26.3359 14.2559C26.3359 15.6725 25.9859 16.9225 25.2859 18.0059C24.5859 19.0892 23.6693 19.9225 22.5359 20.5059C22.2026 21.1559 21.7903 21.7269 21.2989 22.2189C20.8076 22.7109 20.2366 23.1232 19.5859 23.4559C19.0026 24.5892 18.1526 25.5059 17.0359 26.2059C15.9193 26.9059 14.6859 27.2559 13.3359 27.2559ZM13.3359 25.2559C13.8859 25.2559 14.4153 25.1725 14.9239 25.0059C15.4326 24.8392 15.9033 24.5892 16.3359 24.2559C15.3693 24.2559 14.4609 24.0725 13.6109 23.7059C12.7609 23.3392 12.0193 22.8392 11.3859 22.2059C10.7526 21.5725 10.2526 20.8309 9.88594 19.9809C9.51927 19.1309 9.33594 18.2225 9.33594 17.2559C9.0026 17.6892 8.7526 18.1602 8.58594 18.6689C8.41927 19.1775 8.33594 19.7065 8.33594 20.2559C8.33594 20.9559 8.46927 21.6059 8.73594 22.2059C9.0026 22.8059 9.36094 23.3309 9.81094 23.7809C10.2609 24.2309 10.7859 24.5892 11.3859 24.8559C11.9859 25.1225 12.6359 25.2559 13.3359 25.2559ZM16.3359 22.2559C16.8859 22.2559 17.4236 22.1725 17.9489 22.0059C18.4743 21.8392 18.9533 21.5892 19.3859 21.2559C18.4026 21.2559 17.4859 21.0682 16.6359 20.6929C15.7859 20.3175 15.0443 19.8135 14.4109 19.1809C13.7776 18.5482 13.2736 17.8065 12.8989 16.9559C12.5243 16.1052 12.3366 15.1885 12.3359 14.2059C12.0026 14.6392 11.7526 15.1185 11.5859 15.6439C11.4193 16.1692 11.3359 16.7065 11.3359 17.2559C11.3359 17.9559 11.4653 18.6059 11.7239 19.2059C11.9826 19.8059 12.3449 20.3309 12.8109 20.7809C13.2609 21.2475 13.7859 21.6099 14.3859 21.8679C14.9859 22.1259 15.6359 22.2552 16.3359 22.2559ZM19.3359 19.2559C19.6359 19.2559 19.9236 19.2309 20.1989 19.1809C20.4743 19.1309 20.7533 19.0559 21.0359 18.9559C21.4026 17.9559 21.4569 16.9932 21.1989 16.0679C20.9409 15.1425 20.4949 14.3635 19.8609 13.7309C19.2269 13.0982 18.4479 12.6522 17.5239 12.3929C16.5999 12.1335 15.6373 12.1879 14.6359 12.5559C14.5359 12.8392 14.4609 13.1185 14.4109 13.3939C14.3609 13.6692 14.3359 13.9565 14.3359 14.2559C14.3359 14.9559 14.4653 15.6059 14.7239 16.2059C14.9826 16.8059 15.3449 17.3309 15.8109 17.7809C16.2609 18.2475 16.7859 18.6102 17.3859 18.8689C17.9859 19.1275 18.6359 19.2565 19.3359 19.2559ZM23.3359 17.3059C23.6693 16.8725 23.9193 16.3935 24.0859 15.8689C24.2526 15.3442 24.3359 14.8065 24.3359 14.2559C24.3359 13.5559 24.2069 12.9059 23.9489 12.3059C23.6909 11.7059 23.3283 11.1809 22.8609 10.7309C22.4109 10.2642 21.8859 9.90186 21.2859 9.64386C20.6859 9.38586 20.0359 9.25653 19.3359 9.25586C18.7526 9.25586 18.2066 9.33919 17.6979 9.50586C17.1893 9.67253 16.7186 9.92253 16.2859 10.2559C17.2693 10.2559 18.1859 10.4435 19.0359 10.8189C19.8859 11.1942 20.6276 11.6982 21.2609 12.3309C21.8943 12.9635 22.3986 13.7052 22.7739 14.5559C23.1493 15.4065 23.3366 16.3232 23.3359 17.3059Z" fill="#FCFCFC"/>
</svg>
