<svg width="33" height="32" viewBox="0 0 33 32" fill="none" xmlns="http://www.w3.org/2000/svg">
<rect x="0.666016" width="32" height="32" rx="8" fill="#1F265C"/>
<path d="M14 26.2939C13.0333 26.2939 12.125 26.1106 11.275 25.7439C10.425 25.3773 9.68333 24.8773 9.05 24.2439C8.41667 23.6106 7.91667 22.8689 7.55 22.0189C7.18333 21.1689 7 20.2606 7 19.2939C7 17.9439 7.35 16.7106 8.05 15.5939C8.75 14.4773 9.66667 13.6273 10.8 13.0439C11.1333 12.3939 11.546 11.8229 12.038 11.3309C12.53 10.8389 13.1007 10.4266 13.75 10.0939C14.3 8.96061 15.1417 8.04395 16.275 7.34395C17.4083 6.64395 18.65 6.29395 20 6.29395C20.9667 6.29395 21.875 6.47728 22.725 6.84395C23.575 7.21061 24.3167 7.71061 24.95 8.34395C25.5833 8.97728 26.0833 9.71895 26.45 10.5689C26.8167 11.4189 27 12.3273 27 13.2939C27 14.7106 26.65 15.9606 25.95 17.0439C25.25 18.1273 24.3333 18.9606 23.2 19.5439C22.8667 20.1939 22.4543 20.7649 21.963 21.2569C21.4717 21.7489 20.9007 22.1613 20.25 22.4939C19.6667 23.6273 18.8167 24.5439 17.7 25.2439C16.5833 25.9439 15.35 26.2939 14 26.2939ZM14 24.2939C14.55 24.2939 15.0793 24.2106 15.588 24.0439C16.0967 23.8773 16.5673 23.6273 17 23.2939C16.0333 23.2939 15.125 23.1106 14.275 22.7439C13.425 22.3773 12.6833 21.8773 12.05 21.2439C11.4167 20.6106 10.9167 19.8689 10.55 19.0189C10.1833 18.1689 10 17.2606 10 16.2939C9.66667 16.7273 9.41667 17.1983 9.25 17.7069C9.08333 18.2156 9 18.7446 9 19.2939C9 19.9939 9.13333 20.6439 9.4 21.2439C9.66667 21.8439 10.025 22.3689 10.475 22.8189C10.925 23.2689 11.45 23.6273 12.05 23.8939C12.65 24.1606 13.3 24.2939 14 24.2939ZM17 21.2939C17.55 21.2939 18.0877 21.2106 18.613 21.0439C19.1383 20.8773 19.6173 20.6273 20.05 20.2939C19.0667 20.2939 18.15 20.1063 17.3 19.7309C16.45 19.3556 15.7083 18.8516 15.075 18.2189C14.4417 17.5863 13.9377 16.8446 13.563 15.9939C13.1883 15.1433 13.0007 14.2266 13 13.2439C12.6667 13.6773 12.4167 14.1566 12.25 14.6819C12.0833 15.2073 12 15.7446 12 16.2939C12 16.9939 12.1293 17.6439 12.388 18.2439C12.6467 18.8439 13.009 19.3689 13.475 19.8189C13.925 20.2856 14.45 20.6479 15.05 20.9059C15.65 21.1639 16.3 21.2933 17 21.2939ZM20 18.2939C20.3 18.2939 20.5877 18.2689 20.863 18.2189C21.1383 18.1689 21.4173 18.0939 21.7 17.9939C22.0667 16.9939 22.121 16.0313 21.863 15.1059C21.605 14.1806 21.159 13.4016 20.525 12.7689C19.891 12.1363 19.112 11.6903 18.188 11.4309C17.264 11.1716 16.3013 11.2259 15.3 11.5939C15.2 11.8773 15.125 12.1566 15.075 12.4319C15.025 12.7073 15 12.9946 15 13.2939C15 13.9939 15.1293 14.6439 15.388 15.2439C15.6467 15.8439 16.009 16.3689 16.475 16.8189C16.925 17.2856 17.45 17.6483 18.05 17.9069C18.65 18.1656 19.3 18.2946 20 18.2939ZM24 16.3439C24.3333 15.9106 24.5833 15.4316 24.75 14.9069C24.9167 14.3823 25 13.8446 25 13.2939C25 12.5939 24.871 11.9439 24.613 11.3439C24.355 10.7439 23.9923 10.2189 23.525 9.76895C23.075 9.30228 22.55 8.93995 21.95 8.68195C21.35 8.42395 20.7 8.29461 20 8.29395C19.4167 8.29395 18.8707 8.37728 18.362 8.54395C17.8533 8.71061 17.3827 8.96061 16.95 9.29395C17.9333 9.29395 18.85 9.48161 19.7 9.85695C20.55 10.2323 21.2917 10.7363 21.925 11.3689C22.5583 12.0016 23.0627 12.7433 23.438 13.5939C23.8133 14.4446 24.0007 15.3613 24 16.3439Z" fill="#7081FF"/>
</svg>
