<svg width="32" height="33" viewBox="0 0 32 33" fill="none" xmlns="http://www.w3.org/2000/svg">
<rect y="0.961914" width="32" height="32" rx="8" fill="#4343EE"/>
<path d="M10.6641 22.2559H12.6641V17.2559H10.6641V22.2559ZM18.6641 22.2559H20.6641V12.2559H18.6641V22.2559ZM14.6641 22.2559H16.6641V19.2559H14.6641V22.2559ZM14.6641 17.2559H16.6641V15.2559H14.6641V17.2559ZM8.66406 26.2559C8.11406 26.2559 7.6434 26.0602 7.25206 25.6689C6.86073 25.2775 6.66473 24.8065 6.66406 24.2559V10.2559C6.66406 9.70586 6.86006 9.23519 7.25206 8.84386C7.64406 8.45253 8.11473 8.25653 8.66406 8.25586H22.6641C23.2141 8.25586 23.6851 8.45186 24.0771 8.84386C24.4691 9.23586 24.6647 9.70653 24.6641 10.2559V24.2559C24.6641 24.8059 24.4684 25.2769 24.0771 25.6689C23.6857 26.0609 23.2147 26.2565 22.6641 26.2559H8.66406Z" fill="#FCFCFC"/>
</svg>
