<svg width="33" height="33" viewBox="0 0 33 33" fill="none" xmlns="http://www.w3.org/2000/svg">
<rect x="0.333984" y="0.706055" width="32" height="32" rx="8" fill="#ECEDF9"/>
<path d="M11 22H13V17H11V22ZM19 22H21V12H19V22ZM15 22H17V19H15V22ZM15 17H17V15H15V17ZM9 26C8.45 26 7.97933 25.8043 7.588 25.413C7.19667 25.0217 7.00067 24.5507 7 24V10C7 9.45 7.196 8.97933 7.588 8.588C7.98 8.19667 8.45067 8.00067 9 8H23C23.55 8 24.021 8.196 24.413 8.588C24.805 8.98 25.0007 9.45067 25 10V24C25 24.55 24.8043 25.021 24.413 25.413C24.0217 25.805 23.5507 26.0007 23 26H9Z" fill="#5567F2"/>
</svg>
