<svg width="33" height="32" viewBox="0 0 33 32" fill="none" xmlns="http://www.w3.org/2000/svg">
<rect x="0.333984" width="32" height="32" rx="8" fill="#1F265C"/>
<path d="M11 21.2939H13V16.2939H11V21.2939ZM19 21.2939H21V11.2939H19V21.2939ZM15 21.2939H17V18.2939H15V21.2939ZM15 16.2939H17V14.2939H15V16.2939ZM9 25.2939C8.45 25.2939 7.97933 25.0983 7.588 24.7069C7.19667 24.3156 7.00067 23.8446 7 23.2939V9.29395C7 8.74395 7.196 8.27328 7.588 7.88195C7.98 7.49061 8.45067 7.29461 9 7.29395H23C23.55 7.29395 24.021 7.48995 24.413 7.88195C24.805 8.27395 25.0007 8.74461 25 9.29395V23.2939C25 23.8439 24.8043 24.3149 24.413 24.7069C24.0217 25.0989 23.5507 25.2946 23 25.2939H9Z" fill="#7081FF"/>
</svg>
