<svg width="40" height="41" viewBox="0 0 40 41" fill="none" xmlns="http://www.w3.org/2000/svg">
<path d="M11.6667 29.0394H15V20.7061H11.6667V29.0394ZM25 29.0394H28.3333V12.3727H25V29.0394ZM18.3333 29.0394H21.6667V24.0394H18.3333V29.0394ZM18.3333 20.7061H21.6667V17.3727H18.3333V20.7061ZM8.33333 35.7061C7.41667 35.7061 6.63222 35.3799 5.98 34.7277C5.32778 34.0755 5.00111 33.2905 5 32.3727V9.03939C5 8.12272 5.32667 7.33828 5.98 6.68605C6.63333 6.03383 7.41778 5.70717 8.33333 5.70605H31.6667C32.5833 5.70605 33.3683 6.03272 34.0217 6.68605C34.675 7.33939 35.0011 8.12383 35 9.03939V32.3727C35 33.2894 34.6739 34.0744 34.0217 34.7277C33.3694 35.3811 32.5844 35.7072 31.6667 35.7061H8.33333Z" fill="#0013A3"/>
</svg>
