<svg width="40" height="41" viewBox="0 0 40 41" fill="none" xmlns="http://www.w3.org/2000/svg">
<path d="M9.99935 37.3729C9.08268 37.3729 8.29824 37.0468 7.64602 36.3946C6.99379 35.7423 6.66713 34.9573 6.66602 34.0396V7.37288C6.66602 6.45622 6.99268 5.67177 7.64602 5.01955C8.29935 4.36733 9.08379 4.04066 9.99935 4.03955H23.3327L33.3327 14.0396V19.0396C32.6938 19.1784 32.0966 19.4007 31.541 19.7062C30.9855 20.0118 30.4716 20.4007 29.9993 20.8729L19.9993 30.8312V37.3729H9.99935ZM23.3327 37.3729V32.2479L32.541 23.0812C32.791 22.8312 33.0688 22.6507 33.3743 22.5396C33.6799 22.4284 33.9855 22.3729 34.291 22.3729C34.6244 22.3729 34.9438 22.4357 35.2493 22.5612C35.5549 22.6868 35.8327 22.874 36.0827 23.1229L37.6244 24.6646C37.8466 24.9146 38.0205 25.1923 38.146 25.4979C38.2716 25.8034 38.3338 26.109 38.3327 26.4146C38.3316 26.7201 38.276 27.0329 38.166 27.3529C38.056 27.6729 37.8755 27.9573 37.6244 28.2062L28.4577 37.3729H23.3327ZM34.291 28.0395L35.8327 26.4146L34.291 24.8729L32.7077 26.4562L34.291 28.0395ZM21.666 15.7062H29.9993L21.666 7.37288V15.7062Z" fill="#0013A3"/>
</svg>
