<svg width="32" height="33" viewBox="0 0 32 33" fill="none" xmlns="http://www.w3.org/2000/svg">
<rect y="0.961914" width="32" height="32" rx="8" fill="#4343EE"/>
<path d="M10 27.2559C9.45 27.2559 8.97933 27.0602 8.588 26.6689C8.19667 26.2775 8.00067 25.8065 8 25.2559V9.25586C8 8.70586 8.196 8.23519 8.588 7.84386C8.98 7.45253 9.45067 7.25653 10 7.25586H18L24 13.2559V16.2559C23.6167 16.3392 23.2583 16.4725 22.925 16.6559C22.5917 16.8392 22.2833 17.0725 22 17.3559L16 23.3309V27.2559H10ZM18 27.2559V24.1809L23.525 18.6809C23.675 18.5309 23.8417 18.4225 24.025 18.3559C24.2083 18.2892 24.3917 18.2559 24.575 18.2559C24.775 18.2559 24.9667 18.2935 25.15 18.3689C25.3333 18.4442 25.5 18.5565 25.65 18.7059L26.575 19.6309C26.7083 19.7809 26.8127 19.9475 26.888 20.1309C26.9633 20.3142 27.0007 20.4975 27 20.6809C26.9993 20.8642 26.966 21.0519 26.9 21.2439C26.834 21.4359 26.7257 21.6065 26.575 21.7559L21.075 27.2559H18ZM24.575 21.6559L25.5 20.6809L24.575 19.7559L23.625 20.7059L24.575 21.6559ZM17 14.2559H22L17 9.25586V14.2559Z" fill="#FCFCFC"/>
</svg>
