<svg width="32" height="32" viewBox="0 0 32 32" fill="none" xmlns="http://www.w3.org/2000/svg">
<rect width="32" height="32" rx="8" fill="#1F265C"/>
<path d="M10 26.2939C9.45 26.2939 8.97933 26.0983 8.588 25.7069C8.19667 25.3156 8.00067 24.8446 8 24.2939V8.29395C8 7.74395 8.196 7.27328 8.588 6.88195C8.98 6.49061 9.45067 6.29461 10 6.29395H18L24 12.2939V15.2939C23.6167 15.3773 23.2583 15.5106 22.925 15.6939C22.5917 15.8773 22.2833 16.1106 22 16.3939L16 22.3689V26.2939H10ZM18 26.2939V23.2189L23.525 17.7189C23.675 17.5689 23.8417 17.4606 24.025 17.3939C24.2083 17.3273 24.3917 17.2939 24.575 17.2939C24.775 17.2939 24.9667 17.3316 25.15 17.4069C25.3333 17.4823 25.5 17.5946 25.65 17.7439L26.575 18.6689C26.7083 18.8189 26.8127 18.9856 26.888 19.1689C26.9633 19.3523 27.0007 19.5356 27 19.7189C26.9993 19.9023 26.966 20.0899 26.9 20.2819C26.834 20.4739 26.7257 20.6446 26.575 20.7939L21.075 26.2939H18ZM24.575 20.6939L25.5 19.7189L24.575 18.7939L23.625 19.7439L24.575 20.6939ZM17 13.2939H22L17 8.29395V13.2939Z" fill="#7081FF"/>
</svg>
