<svg width="32" height="33" viewBox="0 0 32 33" fill="none" xmlns="http://www.w3.org/2000/svg">
<rect y="0.706055" width="32" height="32" rx="8" fill="#ECEDF9"/>
<path d="M10 27C9.45 27 8.97933 26.8043 8.588 26.413C8.19667 26.0217 8.00067 25.5507 8 25V9C8 8.45 8.196 7.97933 8.588 7.588C8.98 7.19667 9.45067 7.00067 10 7H18L24 13V16C23.6167 16.0833 23.2583 16.2167 22.925 16.4C22.5917 16.5833 22.2833 16.8167 22 17.1L16 23.075V27H10ZM18 27V23.925L23.525 18.425C23.675 18.275 23.8417 18.1667 24.025 18.1C24.2083 18.0333 24.3917 18 24.575 18C24.775 18 24.9667 18.0377 25.15 18.113C25.3333 18.1883 25.5 18.3007 25.65 18.45L26.575 19.375C26.7083 19.525 26.8127 19.6917 26.888 19.875C26.9633 20.0583 27.0007 20.2417 27 20.425C26.9993 20.6083 26.966 20.796 26.9 20.988C26.834 21.18 26.7257 21.3507 26.575 21.5L21.075 27H18ZM24.575 21.4L25.5 20.425L24.575 19.5L23.625 20.45L24.575 21.4ZM17 14H22L17 9V14Z" fill="#5567F2"/>
</svg>
