<svg width="40" height="33" viewBox="0 0 40 33" fill="none" xmlns="http://www.w3.org/2000/svg">
<path fill-rule="evenodd" clip-rule="evenodd" d="M16.9806 20.0593C17.1217 19.4975 17.4372 19.2354 17.844 19.0579C18.5082 18.7689 20.0773 18.9252 20.9573 18.3243C22.3022 17.4052 24.7596 13.5218 25.7393 8.8535C26.6608 4.47508 27.9891 3.18712 28.3626 2.90543L28.371 2.89646C29.334 1.67526 31.0941 0.59247 33.7922 1.15097C34.9711 1.39358 36.2082 2.18654 37.2708 3.55755C38.7818 5.50903 39.944 8.65893 39.9938 13.0162C40.0851 20.3182 34.6639 25.7745 27.9392 26.5284C24.552 26.9069 22.2524 26.3159 20.6418 25.4024C19.0146 24.4768 18.0931 23.2108 17.4953 22.2241C16.8893 21.2186 16.8644 20.5168 16.9806 20.0593Z" fill="currentColor"/>
<path fill-rule="evenodd" clip-rule="evenodd" d="M10.9919 19.858C11.4402 20.033 13.1837 19.8238 12.8765 19.8702C12.9429 19.8596 13.3331 19.8083 13.715 20.0704C13.9807 20.2447 14.2629 20.5736 14.3874 21.2428C14.487 21.7663 14.487 22.5438 14.2545 23.6974C13.8145 25.9396 12.9594 27.8324 11.7889 29.0585C10.967 29.9264 9.97068 30.4694 8.8499 30.598C6.14344 30.9098 4.37516 29.5307 2.58192 27.1485C0.871702 24.869 0 19.0666 0 16.2782C0 14.9764 0.0912698 13.2855 0.672413 12.0195C1.11242 11.0751 1.80149 10.357 2.85585 10.1111C2.85585 10.1111 4.62425 9.56566 5.92767 12.8458C7.01524 15.5683 8.30198 17.348 9.1737 18.4178C9.9873 19.4061 10.3692 19.6129 10.9919 19.858Z" fill="currentColor"/>
</svg>
