<svg width="204" height="150" viewBox="0 0 204 150" fill="none" xmlns="http://www.w3.org/2000/svg">
<path fill-rule="evenodd" clip-rule="evenodd" d="M86.247 96.4475C86.9636 93.6048 88.5656 92.2781 90.6312 91.38C94.0035 89.9174 101.971 90.7085 106.439 87.668C113.268 83.0167 125.746 63.365 130.72 39.7418C135.399 17.5853 142.143 11.0677 144.04 9.64222L144.082 9.59683C148.972 3.41706 157.909 -2.06227 171.609 0.763951C177.595 1.99167 183.876 6.00437 189.272 12.9422C196.944 22.8175 202.845 38.7572 203.098 60.8066C203.562 97.7576 176.035 125.369 141.89 129.184C124.691 131.099 113.015 128.108 104.837 123.486C96.5749 118.802 91.8956 112.395 88.8605 107.402C85.7833 102.314 85.6568 98.7628 86.247 96.4475Z" fill="#0C0C46"/>
<path fill-rule="evenodd" clip-rule="evenodd" d="M55.8119 95.4304C58.0882 96.3161 66.9406 95.2573 65.381 95.4921C65.7182 95.4385 67.6995 95.179 69.6385 96.5056C70.9875 97.3872 72.4204 99.0517 73.0528 102.438C73.5586 105.087 73.5585 109.022 72.3781 114.86C70.144 126.206 65.8022 135.784 59.8585 141.989C55.6853 146.38 50.6266 149.128 44.9358 149.779C31.1936 151.357 22.2151 144.378 13.1098 132.324C4.42611 120.788 0 91.4259 0 77.3154C0 70.7277 0.463427 62.1709 3.41421 55.7645C5.64837 50.9855 9.14718 47.3517 14.5007 46.1075C14.5007 46.1075 23.4799 43.3472 30.098 59.9461C35.6202 73.7229 42.1537 82.7288 46.5799 88.1423C50.711 93.1438 52.6503 94.1903 55.8119 95.4304Z" fill="#0C0C46"/>
</svg>
