<svg width="2710" height="2132" viewBox="0 0 2710 2132" fill="none" xmlns="http://www.w3.org/2000/svg">
<path fill-rule="evenodd" clip-rule="evenodd" d="M2544.57 1534.2C2614.37 1516.9 2685.97 1558.23 2704.97 1627C2724.11 1696.27 2682.68 1767.31 2612.48 1785.55C2578.71 1794.32 2544.6 1789.28 2515.98 1774.09L2515.95 1773.95C2506.94 1767.4 2497.63 1761.34 2488.03 1755.8C2451.98 1735.01 2405.93 1745.17 2382.78 1778.98C2359.63 1812.8 2367.1 1858.78 2400.06 1884.14C2408.91 1890.93 2418.06 1897.18 2427.51 1902.99L2427.55 1903.13C2447.61 1919.7 2462.99 1942.21 2470.37 1968.9C2489.5 2038.15 2448.07 2109.19 2377.87 2127.43C2346.94 2135.47 2315.42 2131.88 2288.42 2119.4C2288.21 2119.41 2288.19 2119.37 2288.18 2119.33C2277.83 2112.63 2267.34 2106.23 2256.7 2100.08C2068.06 1990.37 1859.56 1946.9 1632.7 2005.85C1604.06 2013.29 1568.52 2026.24 1528.9 2040.68L1528.9 2040.68C1479.03 2058.85 1422.7 2079.38 1365.55 2094.23C790.147 2243.75 195.354 1903.99 38.392 1335.9C-118.57 767.815 221.365 185.173 796.77 35.656C1170.54 -61.4666 1552.5 47.8515 1817.33 292.052C1960.16 423.834 2068.92 594.886 2123.93 793.983C2170.93 964.099 2302.57 1090.09 2461.82 1139.21C2468.5 1141.3 2475.34 1143.19 2482.17 1144.99L2482.18 1145.05C2521.62 1159.12 2553.85 1191.33 2565.69 1234.19C2583.05 1296.99 2550.86 1361.24 2492.38 1386.36L2492.38 1386.38C2483.71 1388.93 2475.35 1391.82 2467.1 1395.1C2428.19 1410.57 2408.6 1453.31 2422.47 1492.48C2436.35 1531.67 2478.83 1553.59 2519.15 1542.46C2527.87 1540.07 2536.26 1537.31 2544.57 1534.2ZM643.042 1154.13C646.947 1138.6 655.675 1131.36 666.929 1126.45C674.197 1123.29 685.382 1122.06 697.755 1120.69C716.661 1118.61 738.342 1116.22 753.058 1106.18C790.266 1080.77 858.25 973.435 885.352 844.406C910.847 723.388 947.593 687.789 957.928 680.003L958.158 679.755C984.801 646.002 1033.49 616.074 1108.14 631.511C1140.75 638.216 1174.98 660.134 1204.37 698.028C1246.18 751.966 1278.33 839.028 1279.71 959.461C1282.23 1161.29 1132.25 1312.1 946.215 1332.93C852.506 1343.4 788.888 1327.06 744.33 1301.81C699.314 1276.23 673.819 1241.24 657.282 1213.96C640.516 1186.17 639.827 1166.78 643.042 1154.13ZM526.899 1148.97C516.666 1149.8 486.628 1152.24 477.218 1148.57C459.992 1141.8 449.426 1136.08 426.917 1108.76C402.801 1079.2 367.203 1030.01 337.116 954.758C301.056 864.096 252.134 879.172 252.134 879.172C222.965 885.968 203.901 905.816 191.728 931.918C175.651 966.91 173.126 1013.65 173.126 1049.63C173.126 1126.7 197.242 1287.07 244.555 1350.08C294.165 1415.92 343.085 1454.04 417.96 1445.42C448.966 1441.87 476.528 1426.86 499.266 1402.87C531.651 1368.98 555.307 1316.67 567.48 1254.69C573.911 1222.81 573.911 1201.32 571.155 1186.85C567.71 1168.35 559.903 1159.26 552.553 1154.44C542.357 1147.45 531.946 1148.53 529.58 1148.87C531.305 1148.61 530.027 1148.71 526.899 1148.97Z" fill="#0C0C46"/>
</svg>
