<svg width="56" height="46" viewBox="0 0 56 46" fill="none" xmlns="http://www.w3.org/2000/svg">
<g clip-path="url(#clip0_824_52)">
<path fill-rule="evenodd" clip-rule="evenodd" d="M52.0911 28.7887C53.4632 29.4104 54.5571 30.6156 54.9784 32.1775C55.7256 34.948 54.0776 37.7975 51.2995 38.5371C51.1311 38.5819 50.9642 38.6177 50.799 38.6449C51.3927 41.3408 49.7623 44.0521 47.0611 44.7713C45.7764 45.1133 44.4716 44.9446 43.3688 44.3904C43.3228 44.3651 43.2726 44.339 43.2291 44.3087C43.0576 44.1963 42.8833 44.0886 42.7063 43.9851C39.98 42.3855 36.9668 41.7296 33.6762 42.6056C32.5123 42.9154 30.7141 43.7392 28.8694 44.2303C16.9994 47.3904 4.77408 40.3458 1.58183 28.5098C-1.61042 16.6738 5.43146 4.49975 17.3015 1.33966C25.0098 -0.712493 32.8705 1.53817 38.307 6.61175C41.2424 9.3501 43.47 12.9111 44.589 17.0602C45.1597 19.1762 46.7773 20.7373 48.7332 21.3421C48.8274 21.3714 48.9248 21.3979 49.018 21.4236C49.0518 21.4322 49.0857 21.4415 49.1199 21.452C50.7204 21.9899 52.0326 23.2919 52.504 25.0396C52.857 26.3485 52.6735 27.6751 52.0911 28.7887ZM49.3563 31.2303C49.2069 31.2873 49.0558 31.3381 48.899 31.3822C48.1736 31.587 47.4116 31.1909 47.1646 30.4789C46.9178 29.7673 47.2727 28.9885 47.9729 28.7047C48.1214 28.6444 48.2719 28.5915 48.4279 28.5445C49.4806 28.0842 50.0632 26.9131 49.7552 25.7714C49.5451 24.9921 48.9677 24.4079 48.2599 24.1543C48.1374 24.1219 48.0144 24.0878 47.8944 24.0501C45.0355 23.1665 42.6777 20.8827 41.8439 17.791C40.868 14.1726 38.9243 11.0678 36.3657 8.67937C31.6217 4.25356 24.764 2.2887 18.0402 4.07873C7.68919 6.83443 1.54239 17.4545 4.32697 27.779C7.11155 38.1034 17.7796 44.247 28.1307 41.4913C29.9754 41.0001 31.7737 40.1767 32.9376 39.8669C37.0187 38.7804 40.7631 39.5581 44.1464 41.5423C44.3373 41.6538 44.5254 41.7696 44.7112 41.8911C45.1996 42.1167 45.766 42.1803 46.3224 42.0322C47.5851 41.696 48.3343 40.4011 47.9949 39.1426C47.8639 38.6571 47.5887 38.2476 47.2291 37.947C47.0596 37.8419 46.8954 37.728 46.7368 37.6051C46.146 37.1458 46.0148 36.3099 46.4329 35.6931C46.8512 35.0767 47.6793 34.8891 48.326 35.265C48.4983 35.3655 48.6653 35.4756 48.8269 35.5949C49.3405 35.8701 49.9532 35.9601 50.5608 35.7983C51.8236 35.4622 52.5728 34.1673 52.2332 32.9084C51.8961 31.6582 50.6117 30.9105 49.3563 31.2303Z" fill="currentColor"/>
<path fill-rule="evenodd" clip-rule="evenodd" d="M15.6943 24.1297C15.6943 24.1297 15.1341 24.4201 15.6943 25.3602C16.2546 26.3003 17.4205 27.777 20.6379 27.4111C23.8553 27.0452 26.4466 24.3942 26.4054 20.8482C26.3642 17.3022 24.8605 15.3866 23.5216 15.1056C22.2816 14.8452 21.4783 15.3546 21.0499 15.926C21.0499 15.926 20.3166 16.3665 19.814 18.7973C19.3114 21.228 18.0302 23.2408 17.3422 23.7195C16.8767 24.0427 16.3947 24.0214 15.6943 24.1297Z" fill="currentColor"/>
<path fill-rule="evenodd" clip-rule="evenodd" d="M12.1637 24.5184C12.4191 24.6202 12.9093 24.5931 13.2224 24.5398C13.2224 24.5398 13.9846 24.3835 13.6344 26.1805C13.2842 27.9775 12.415 29.3159 11.1626 29.462C9.91024 29.608 9.10691 28.939 8.27886 27.8212C7.45081 26.7035 7.04297 23.856 7.04297 22.4889C7.04297 21.4474 7.1542 19.8834 8.27886 19.6176C8.27886 19.6176 8.96272 19.4449 9.51475 20.8481C10.0668 22.2514 10.7177 23.1681 11.1626 23.7194C11.6075 24.2707 11.8218 24.3818 12.1637 24.5184Z" fill="currentColor"/>
</g>
<defs>
<clipPath id="clip0_824_52">
<rect width="54.4" height="44.4267" fill="white" transform="translate(0.799805 0.600098)"/>
</clipPath>
</defs>
</svg>
