<svg width="32" height="33" viewBox="0 0 32 33" fill="none" xmlns="http://www.w3.org/2000/svg">
<rect y="0.706055" width="32" height="32" rx="8" fill="#ECEDF9"/>
<path d="M15 27V22C15 21.0667 14.8583 20.375 14.575 19.925C14.2917 19.475 13.9167 19.0333 13.45 18.6L14.875 17.175C15.075 17.3583 15.2667 17.5543 15.45 17.763C15.6333 17.9717 15.8167 18.1923 16 18.425C16.2333 18.1083 16.471 17.8293 16.713 17.588C16.955 17.3467 17.2007 17.109 17.45 16.875C18.0833 16.2917 18.6583 15.6167 19.175 14.85C19.6917 14.0833 19.9667 12.7417 20 10.825L18.425 12.4L17 11L21 7L25 11L23.6 12.4L22 10.825C21.9667 13.2083 21.6 14.9043 20.9 15.913C20.2 16.9217 19.5 17.7423 18.8 18.375C18.2667 18.8583 17.8333 19.3293 17.5 19.788C17.1667 20.2467 17 20.984 17 22V27H15ZM10.2 13.175C10.1333 12.8417 10.0877 12.475 10.063 12.075C10.0383 11.675 10.0173 11.2583 10 10.825L8.4 12.4L7 11L11 7L15 11L13.575 12.4L12 10.85C12 11.2 12.0167 11.5293 12.05 11.838C12.0833 12.1467 12.1167 12.434 12.15 12.7L10.2 13.175ZM12.35 17.575C12.0167 17.225 11.696 16.8167 11.388 16.35C11.08 15.8833 10.809 15.3083 10.575 14.625L12.5 14.15C12.6667 14.6 12.8583 14.9833 13.075 15.3C13.2917 15.6167 13.525 15.9 13.775 16.15L12.35 17.575Z" fill="#5567F2"/>
</svg>
