<svg width="32" height="33" viewBox="0 0 32 33" fill="none" xmlns="http://www.w3.org/2000/svg">
<rect y="0.961914" width="32" height="32" rx="8" fill="#4343EE"/>
<path d="M15 27.2559V22.2559C15 21.3225 14.8583 20.6309 14.575 20.1809C14.2917 19.7309 13.9167 19.2892 13.45 18.8559L14.875 17.4309C15.075 17.6142 15.2667 17.8102 15.45 18.0189C15.6333 18.2275 15.8167 18.4482 16 18.6809C16.2333 18.3642 16.471 18.0852 16.713 17.8439C16.955 17.6025 17.2007 17.3649 17.45 17.1309C18.0833 16.5475 18.6583 15.8725 19.175 15.1059C19.6917 14.3392 19.9667 12.9975 20 11.0809L18.425 12.6559L17 11.2559L21 7.25586L25 11.2559L23.6 12.6559L22 11.0809C21.9667 13.4642 21.6 15.1602 20.9 16.1689C20.2 17.1775 19.5 17.9982 18.8 18.6309C18.2667 19.1142 17.8333 19.5852 17.5 20.0439C17.1667 20.5025 17 21.2399 17 22.2559V27.2559H15ZM10.2 13.4309C10.1333 13.0975 10.0877 12.7309 10.063 12.3309C10.0383 11.9309 10.0173 11.5142 10 11.0809L8.4 12.6559L7 11.2559L11 7.25586L15 11.2559L13.575 12.6559L12 11.1059C12 11.4559 12.0167 11.7852 12.05 12.0939C12.0833 12.4025 12.1167 12.6899 12.15 12.9559L10.2 13.4309ZM12.35 17.8309C12.0167 17.4809 11.696 17.0725 11.388 16.6059C11.08 16.1392 10.809 15.5642 10.575 14.8809L12.5 14.4059C12.6667 14.8559 12.8583 15.2392 13.075 15.5559C13.2917 15.8725 13.525 16.1559 13.775 16.4059L12.35 17.8309Z" fill="#FCFCFC"/>
</svg>
