<svg width="32" height="32" viewBox="0 0 32 32" fill="none" xmlns="http://www.w3.org/2000/svg">
<rect width="32" height="32" rx="8" fill="#1F265C"/>
<path d="M15 26.2939V21.2939C15 20.3606 14.8583 19.6689 14.575 19.2189C14.2917 18.7689 13.9167 18.3273 13.45 17.8939L14.875 16.4689C15.075 16.6523 15.2667 16.8483 15.45 17.0569C15.6333 17.2656 15.8167 17.4863 16 17.7189C16.2333 17.4023 16.471 17.1233 16.713 16.8819C16.955 16.6406 17.2007 16.4029 17.45 16.1689C18.0833 15.5856 18.6583 14.9106 19.175 14.1439C19.6917 13.3773 19.9667 12.0356 20 10.1189L18.425 11.6939L17 10.2939L21 6.29395L25 10.2939L23.6 11.6939L22 10.1189C21.9667 12.5023 21.6 14.1983 20.9 15.2069C20.2 16.2156 19.5 17.0363 18.8 17.6689C18.2667 18.1523 17.8333 18.6233 17.5 19.0819C17.1667 19.5406 17 20.2779 17 21.2939V26.2939H15ZM10.2 12.4689C10.1333 12.1356 10.0877 11.7689 10.063 11.3689C10.0383 10.9689 10.0173 10.5523 10 10.1189L8.4 11.6939L7 10.2939L11 6.29395L15 10.2939L13.575 11.6939L12 10.1439C12 10.4939 12.0167 10.8233 12.05 11.1319C12.0833 11.4406 12.1167 11.7279 12.15 11.9939L10.2 12.4689ZM12.35 16.8689C12.0167 16.5189 11.696 16.1106 11.388 15.6439C11.08 15.1773 10.809 14.6023 10.575 13.9189L12.5 13.4439C12.6667 13.8939 12.8583 14.2773 13.075 14.5939C13.2917 14.9106 13.525 15.1939 13.775 15.4439L12.35 16.8689Z" fill="#7081FF"/>
</svg>
