<svg width="32" height="33" viewBox="0 0 32 33" fill="none" xmlns="http://www.w3.org/2000/svg">
<rect y="0.961914" width="32" height="32" rx="8" fill="#4343EE"/>
<path d="M13.2641 20.8559L14.6641 19.4059L12.5141 17.2559L14.6641 15.1059L13.2641 13.6559L9.66406 17.2559L13.2641 20.8559ZM18.0641 20.8559L21.6641 17.2559L18.0641 13.6559L16.6641 15.1059L18.8141 17.2559L16.6641 19.4059L18.0641 20.8559ZM8.66406 26.2559C8.11406 26.2559 7.6434 26.0602 7.25206 25.6689C6.86073 25.2775 6.66473 24.8065 6.66406 24.2559V10.2559C6.66406 9.70586 6.86006 9.23519 7.25206 8.84386C7.64406 8.45253 8.11473 8.25653 8.66406 8.25586H12.8641C13.0807 7.65586 13.4434 7.17253 13.9521 6.80586C14.4607 6.43919 15.0314 6.25586 15.6641 6.25586C16.2967 6.25586 16.8677 6.43919 17.3771 6.80586C17.8864 7.17253 18.2487 7.65586 18.4641 8.25586H22.6641C23.2141 8.25586 23.6851 8.45186 24.0771 8.84386C24.4691 9.23586 24.6647 9.70653 24.6641 10.2559V24.2559C24.6641 24.8059 24.4684 25.2769 24.0771 25.6689C23.6857 26.0609 23.2147 26.2565 22.6641 26.2559H8.66406ZM15.6641 9.50586C15.8807 9.50586 16.0601 9.43486 16.2021 9.29286C16.3441 9.15086 16.4147 8.97186 16.4141 8.75586C16.4134 8.53986 16.3424 8.36086 16.2011 8.21886C16.0597 8.07686 15.8807 8.00586 15.6641 8.00586C15.4474 8.00586 15.2684 8.07686 15.1271 8.21886C14.9857 8.36086 14.9147 8.53986 14.9141 8.75586C14.9134 8.97186 14.9844 9.15119 15.1271 9.29386C15.2697 9.43653 15.4487 9.50719 15.6641 9.50586Z" fill="#FCFCFC"/>
</svg>
