<svg width="33" height="32" viewBox="0 0 33 32" fill="none" xmlns="http://www.w3.org/2000/svg">
<rect x="0.333984" width="32" height="32" rx="8" fill="#1F265C"/>
<path d="M13.6 19.8939L15 18.4439L12.85 16.2939L15 14.1439L13.6 12.6939L10 16.2939L13.6 19.8939ZM18.4 19.8939L22 16.2939L18.4 12.6939L17 14.1439L19.15 16.2939L17 18.4439L18.4 19.8939ZM9 25.2939C8.45 25.2939 7.97933 25.0983 7.588 24.7069C7.19667 24.3156 7.00067 23.8446 7 23.2939V9.29395C7 8.74395 7.196 8.27328 7.588 7.88195C7.98 7.49061 8.45067 7.29461 9 7.29395H13.2C13.4167 6.69395 13.7793 6.21061 14.288 5.84395C14.7967 5.47728 15.3673 5.29395 16 5.29395C16.6327 5.29395 17.2037 5.47728 17.713 5.84395C18.2223 6.21061 18.5847 6.69395 18.8 7.29395H23C23.55 7.29395 24.021 7.48995 24.413 7.88195C24.805 8.27395 25.0007 8.74461 25 9.29395V23.2939C25 23.8439 24.8043 24.3149 24.413 24.7069C24.0217 25.0989 23.5507 25.2946 23 25.2939H9ZM16 8.54395C16.2167 8.54395 16.396 8.47295 16.538 8.33095C16.68 8.18895 16.7507 8.00995 16.75 7.79395C16.7493 7.57795 16.6783 7.39895 16.537 7.25695C16.3957 7.11495 16.2167 7.04395 16 7.04395C15.7833 7.04395 15.6043 7.11495 15.463 7.25695C15.3217 7.39895 15.2507 7.57795 15.25 7.79395C15.2493 8.00995 15.3203 8.18928 15.463 8.33195C15.6057 8.47461 15.7847 8.54528 16 8.54395Z" fill="#7081FF"/>
</svg>
