<svg width="40" height="41" viewBox="0 0 40 41" fill="none" xmlns="http://www.w3.org/2000/svg">
<path d="M16 26.7059L18.3333 24.2892L14.75 20.7059L18.3333 17.1226L16 14.7059L10 20.7059L16 26.7059ZM24 26.7059L30 20.7059L24 14.7059L21.6667 17.1226L25.25 20.7059L21.6667 24.2892L24 26.7059ZM8.33333 35.7059C7.41667 35.7059 6.63222 35.3798 5.98 34.7276C5.32778 34.0753 5.00111 33.2903 5 32.3726V9.03923C5 8.12256 5.32667 7.33811 5.98 6.68589C6.63333 6.03367 7.41778 5.707 8.33333 5.70589H15.3333C15.6944 4.70589 16.2989 3.90034 17.1467 3.28923C17.9944 2.67811 18.9456 2.37256 20 2.37256C21.0544 2.37256 22.0061 2.67811 22.855 3.28923C23.7039 3.90034 24.3078 4.70589 24.6667 5.70589H31.6667C32.5833 5.70589 33.3683 6.03256 34.0217 6.68589C34.675 7.33923 35.0011 8.12367 35 9.03923V32.3726C35 33.2892 34.6739 34.0742 34.0217 34.7276C33.3694 35.3809 32.5844 35.707 31.6667 35.7059H8.33333ZM20 7.78923C20.3611 7.78923 20.66 7.67089 20.8967 7.43423C21.1333 7.19756 21.2511 6.89923 21.25 6.53923C21.2489 6.17923 21.1306 5.88089 20.895 5.64423C20.6594 5.40756 20.3611 5.28923 20 5.28923C19.6389 5.28923 19.3406 5.40756 19.105 5.64423C18.8694 5.88089 18.7511 6.17923 18.75 6.53923C18.7489 6.89923 18.8672 7.19811 19.105 7.43589C19.3428 7.67367 19.6411 7.79145 20 7.78923Z" fill="#0013A3"/>
</svg>
