<svg width="40" height="41" viewBox="0 0 40 41" fill="none" xmlns="http://www.w3.org/2000/svg">
<path d="M18.3333 37.3729V29.0396C18.3333 27.484 18.0972 26.3312 17.625 25.5812C17.1528 24.8312 16.5278 24.0951 15.75 23.3729L18.125 20.9979C18.4583 21.3034 18.7778 21.6301 19.0833 21.9779C19.3889 22.3257 19.6944 22.6934 20 23.0812C20.3889 22.5534 20.785 22.0884 21.1883 21.6862C21.5917 21.284 22.0011 20.8879 22.4167 20.4979C23.4722 19.5257 24.4306 18.4007 25.2917 17.1229C26.1528 15.8451 26.6111 13.609 26.6667 10.4146L24.0417 13.0396L21.6667 10.7062L28.3333 4.03955L35 10.7062L32.6667 13.0396L30 10.4146C29.9444 14.3868 29.3333 17.2134 28.1667 18.8946C27 20.5757 25.8333 21.9434 24.6667 22.9979C23.7778 23.8034 23.0556 24.5884 22.5 25.3529C21.9444 26.1173 21.6667 27.3462 21.6667 29.0396V37.3729H18.3333ZM10.3333 14.3312C10.2222 13.7757 10.1461 13.1645 10.105 12.4979C10.0639 11.8312 10.0289 11.1368 10 10.4146L7.33333 13.0396L5 10.7062L11.6667 4.03955L18.3333 10.7062L15.9583 13.0396L13.3333 10.4562C13.3333 11.0396 13.3611 11.5884 13.4167 12.1029C13.4722 12.6173 13.5278 13.0962 13.5833 13.5395L10.3333 14.3312ZM13.9167 21.6646C13.3611 21.0812 12.8267 20.4007 12.3133 19.6229C11.8 18.8451 11.3483 17.8868 10.9583 16.7479L14.1667 15.9562C14.4444 16.7062 14.7639 17.3451 15.125 17.8729C15.4861 18.4007 15.875 18.8729 16.2917 19.2895L13.9167 21.6646Z" fill="#0013A3"/>
</svg>
