<svg width="112" height="24" viewBox="0 0 112 24" fill="none" xmlns="http://www.w3.org/2000/svg">
<g clip-path="url(#clip0_1033_413)">
<path d="M0 23.9518V1.37309C0 0.6374 0.591896 0.0410156 1.32204 0.0410156C3.26547 0.0410156 6.66586 0.0410156 6.66586 0.0410156V23.9518H0ZM5.39925 15.4556V9.88087H15.8595L13.751 15.4556H5.39925ZM5.39925 5.61575V0.0410156H17.5644V5.61575H5.39925Z" fill="currentColor"/>
<path d="M11.1914 23.9518C11.1914 23.9518 17.8404 6.35174 19.729 1.35154C20.0272 0.562435 20.7772 0.0410156 21.6146 0.0410156H25.6267C26.4671 0.0410156 27.2202 0.565772 27.5154 1.35852C29.3859 6.36813 35.9554 23.9518 35.9554 23.9518H29.0214L22.3887 3.63449H24.7894L17.991 23.9518H11.1914ZM17.0572 19.9219V14.6832H30.3227V19.9219H17.0572Z" fill="currentColor"/>
<path fill-rule="evenodd" clip-rule="evenodd" d="M39.3084 11.7134V23.5345C39.3084 23.645 39.2632 23.7512 39.1879 23.8295C39.1096 23.9078 39.0042 23.9518 38.8928 23.9518C37.4379 23.9518 32.6426 23.9518 32.6426 23.9518V0.0410156H36.4891C37.0072 0.0410156 37.4951 0.278961 37.8174 0.687171C39.8566 3.26816 47.3056 12.7016 47.3056 12.7016V0.0410156H53.5588C53.7877 0.0410156 53.9715 0.227973 53.9715 0.458938V23.9518H49.5738C49.1942 23.9518 48.8358 23.7773 48.5978 23.4775C46.8207 21.2246 39.3084 11.7134 39.3084 11.7134Z" fill="currentColor"/>
<path d="M54.6697 23.9518V0.0410156H61.3355V23.9518H54.6697ZM44.2597 5.7502C43.9254 5.7502 43.6543 5.47765 43.6543 5.14168C43.6543 3.6703 43.6543 0.0410156 43.6543 0.0410156H74.7666C74.9474 0.0410156 75.095 0.189732 75.095 0.373351C75.095 0.821087 75.095 1.21308 75.095 1.40457C72.1519 1.40457 69.1746 2.10669 69.1746 2.10669C67.0841 3.38329 66.3872 3.76627 64.4234 5.7502C57.9636 5.7502 52.2872 5.7502 44.2597 5.7502Z" fill="currentColor"/>
<path d="M86.7656 23.9518L88.3078 21.2556L90.3983 18.31L88.8779 13.071L86.7656 11.056V0.0410156H90.9615C91.3622 0.0410156 91.7356 0.239506 91.9585 0.571538C93.6152 3.01564 100.432 13.071 100.432 13.071H98.3322C98.3322 13.071 105.119 3.0205 106.772 0.573358C106.995 0.240416 107.372 0.0410156 107.769 0.0410156C109.083 0.0410156 111.965 0.0410156 111.965 0.0410156V23.9518H105.926C105.778 23.9518 105.634 23.8921 105.528 23.7858C105.423 23.6796 105.366 23.5354 105.366 23.3852C105.366 20.8962 105.366 11.056 105.366 11.056L106.332 11.3249C106.332 11.3249 102.435 16.9567 101.64 18.1064C101.552 18.2339 101.408 18.31 101.254 18.31C100.501 18.31 98.2328 18.31 97.4798 18.31C97.3262 18.31 97.1786 18.2336 97.0912 18.1052C96.299 16.9528 92.4345 11.3249 92.4345 11.3249L93.3652 11.056V23.9518H86.7656Z" fill="currentColor"/>
<path fill-rule="evenodd" clip-rule="evenodd" d="M89.8337 15.1847C90.5661 15.5181 91.1491 16.1664 91.372 17.008C91.7675 18.5009 90.8828 20.0397 89.3971 20.4423C89.3071 20.4667 89.2179 20.4862 89.1295 20.5011C89.4431 21.954 88.568 23.4182 87.1234 23.8097C86.4363 23.9959 85.7393 23.9068 85.1507 23.6095C85.1261 23.5959 85.0993 23.5819 85.0761 23.5656C84.9846 23.5052 84.8916 23.4474 84.7972 23.3918C83.3424 22.533 81.7329 22.1835 79.9732 22.6604C79.3507 22.8291 78.3886 23.2758 77.4021 23.5432C71.0541 25.2635 64.5303 21.4818 62.8407 15.1041C61.1511 8.72631 64.9313 2.1521 71.2793 0.431744C75.4017 -0.685456 79.5995 0.517288 82.4979 3.24554C84.0629 4.71806 85.2484 6.63513 85.8407 8.87086C86.1427 10.0111 87.005 10.8506 88.0495 11.174C88.0998 11.1897 88.1518 11.2038 88.2016 11.2175C88.2196 11.2222 88.2377 11.2272 88.256 11.2327C89.1106 11.5206 89.8101 12.2208 90.0596 13.1626C90.2464 13.8679 90.1465 14.5835 89.8337 15.1847ZM88.3688 16.505C88.2888 16.536 88.208 16.5636 88.1242 16.5876C87.7362 16.699 87.3295 16.4865 87.1985 16.1029C87.0676 15.7195 87.2583 15.2991 87.6329 15.1451C87.7124 15.1124 87.7929 15.0836 87.8763 15.0581C88.4396 14.8085 88.7525 14.1762 88.5895 13.5609C88.4783 13.141 88.1706 12.8268 87.7926 12.691C87.7272 12.6738 87.6615 12.6555 87.5974 12.6354C86.0708 12.1629 84.8139 10.9347 84.3726 9.26873C83.8561 7.31898 82.8216 5.64745 81.4575 4.36313C78.9284 1.9832 75.2661 0.933178 71.6703 1.90768C66.1346 3.40789 62.8349 9.14292 64.3088 14.7062C65.7826 20.2695 71.4754 23.5674 77.011 22.0672C77.9976 21.7999 78.9598 21.3534 79.5822 21.1847C81.7648 20.5932 83.7648 21.0074 85.5702 22.0727C85.672 22.1325 85.7724 22.1947 85.8715 22.26C86.1323 22.3809 86.4349 22.4144 86.7324 22.3338C87.4077 22.1508 87.8099 21.4515 87.6302 20.7734C87.5609 20.5118 87.4144 20.2913 87.2227 20.1298C87.1322 20.0733 87.0446 20.0121 86.96 19.9461C86.6449 19.6992 86.5759 19.2487 86.8003 18.9155C87.0247 18.5825 87.4675 18.4802 87.8126 18.6821C87.9045 18.736 87.9936 18.7951 88.0798 18.8592C88.3539 19.0069 88.6812 19.0546 89.0062 18.9666C89.6815 18.7835 90.0837 18.0843 89.904 17.4059C89.7255 16.7323 89.0401 16.3309 88.3688 16.505Z" fill="currentColor"/>
<path fill-rule="evenodd" clip-rule="evenodd" d="M70.3966 12.707C70.3966 12.707 70.0976 12.8638 70.3966 13.3715C70.6955 13.8792 71.3177 14.6766 73.0347 14.4791C74.7516 14.2815 76.1344 12.8498 76.1124 10.9349C76.0904 9.01989 75.288 7.98543 74.5735 7.8337C73.9118 7.69304 73.4831 7.96815 73.2545 8.27672C73.2545 8.27672 72.8632 8.51462 72.595 9.8273C72.3268 11.14 71.6431 12.2269 71.2759 12.4854C71.0275 12.66 70.7703 12.6485 70.3966 12.707Z" fill="currentColor"/>
<path fill-rule="evenodd" clip-rule="evenodd" d="M68.5119 12.9169C68.6482 12.9718 68.9098 12.9572 69.0769 12.9284C69.0769 12.9284 69.4836 12.844 69.2968 13.8144C69.1099 14.7849 68.646 15.5077 67.9777 15.5865C67.3094 15.6654 66.8807 15.3041 66.4388 14.7005C65.9969 14.0969 65.7793 12.5591 65.7793 11.8208C65.7793 11.2584 65.8387 10.4138 66.4388 10.2702C66.4388 10.2702 66.8038 10.177 67.0983 10.9348C67.3929 11.6926 67.7403 12.1876 67.9777 12.4854C68.2151 12.7831 68.3295 12.8431 68.5119 12.9169Z" fill="currentColor"/>
</g>
<defs>
<clipPath id="clip0_1033_413">
<rect width="112" height="24" fill="currentColor"/>
</clipPath>
</defs>
</svg>
