<svg width="40" height="41" viewBox="0 0 40 41" fill="none" xmlns="http://www.w3.org/2000/svg">
<path d="M11.666 34.0812V19.0396H14.3327C14.5271 19.0396 14.7216 19.0607 14.916 19.1029C15.1105 19.1451 15.3049 19.1934 15.4993 19.2479L27.041 23.5396C27.4299 23.6784 27.7427 23.9284 27.9793 24.2895C28.216 24.6507 28.3338 25.0257 28.3327 25.4146C28.3327 25.9979 28.131 26.4701 27.7277 26.8312C27.3243 27.1923 26.8593 27.3729 26.3327 27.3729H21.9577C21.8188 27.3729 21.7149 27.3662 21.646 27.3529C21.5771 27.3396 21.4866 27.3046 21.3743 27.2479L18.7077 26.2062L18.166 27.8312L21.3743 28.9562C21.4299 28.984 21.5132 29.0051 21.6243 29.0196C21.7355 29.034 21.8327 29.0407 21.916 29.0396H33.3327C34.2216 29.0396 34.9993 29.359 35.666 29.9979C36.3327 30.6368 36.666 31.4284 36.666 32.3729L23.3743 37.3729L11.666 34.0812ZM1.66602 37.3729V19.0396H8.33268V37.3729H1.66602ZM24.9993 20.1229L15.416 16.5396H8.74935C9.22157 15.1229 10.0066 13.9007 11.1043 12.8729C12.2021 11.8451 13.5005 11.1784 14.9993 10.8729V7.37288H12.4993V4.03955H21.666C22.6105 4.03955 23.4993 4.19233 24.3327 4.49788C25.166 4.80344 25.9299 5.22011 26.6243 5.74788L24.2493 8.12288C23.8605 7.90066 23.4505 7.72011 23.0193 7.58122C22.5882 7.44233 22.1371 7.37288 21.666 7.37288H18.3327V10.8729C20.2493 11.2618 21.8393 12.2134 23.1027 13.7279C24.366 15.2423 24.9982 17.0129 24.9993 19.0396V20.1229ZM31.666 17.3729C30.7493 17.3729 29.9649 17.0462 29.3127 16.3929C28.6605 15.7395 28.3338 14.9551 28.3327 14.0396C28.3327 13.4007 28.5688 12.609 29.041 11.6646C29.5132 10.7201 30.3882 9.28955 31.666 7.37288C32.9438 9.28955 33.8188 10.7201 34.291 11.6646C34.7632 12.609 34.9993 13.4007 34.9993 14.0396C34.9993 14.9562 34.6732 15.7412 34.021 16.3946C33.3688 17.0479 32.5838 17.374 31.666 17.3729Z" fill="#0013A3"/>
</svg>
