<svg width="20" height="20" viewBox="0 0 20 20" fill="none" xmlns="http://www.w3.org/2000/svg">
<path d="M11.6673 18.3334V15.7709L16.2715 11.1876C16.3965 11.0626 16.5354 10.9723 16.6882 10.9167C16.8409 10.8612 16.9937 10.8334 17.1465 10.8334C17.3132 10.8334 17.4729 10.8648 17.6257 10.9276C17.7784 10.9904 17.9173 11.084 18.0423 11.2084L18.8132 11.9792C18.9243 12.1042 19.0112 12.2431 19.074 12.3959C19.1368 12.5487 19.1679 12.7015 19.1673 12.8542C19.1668 13.007 19.139 13.1634 19.084 13.3234C19.029 13.4834 18.9387 13.6256 18.8132 13.7501L14.2298 18.3334H11.6673ZM12.9173 17.0834H13.709L16.2298 14.5417L15.8548 14.1459L15.459 13.7709L12.9173 16.2917V17.0834ZM5.00065 18.3334C4.54232 18.3334 4.1501 18.1704 3.82398 17.8442C3.49787 17.5181 3.33454 17.1256 3.33398 16.6667V3.33341C3.33398 2.87508 3.49732 2.48286 3.82398 2.15675C4.15065 1.83064 4.54287 1.6673 5.00065 1.66675H11.6673L16.6673 6.66675V9.16675H15.0007V7.50008H10.834V3.33341H5.00065V16.6667H10.0007V18.3334H5.00065ZM15.8548 14.1459L15.459 13.7709L16.2298 14.5417L15.8548 14.1459Z" fill="currentColor"/>
</svg>
