<svg width="32" height="33" viewBox="0 0 32 33" fill="none" xmlns="http://www.w3.org/2000/svg">
<rect y="0.961914" width="32" height="32" rx="8" fill="#4343EE"/>
<path d="M16.3359 27.9028C13.8895 27.9028 12.0281 27.5846 10.7517 26.9482C9.47522 26.3118 8.83665 25.3759 8.83594 24.1403C8.83594 23.6207 8.95201 23.146 9.18415 22.716C9.41629 22.286 9.76451 21.9187 10.2288 21.6141C10.1217 21.7574 10.037 21.9323 9.97487 22.1387C9.91272 22.3451 9.88129 22.5733 9.88058 22.8235C9.88058 23.5043 10.1263 24.0418 10.6177 24.436C11.1092 24.8301 11.6984 25.1257 12.3856 25.3228C13.0727 25.5199 13.7824 25.641 14.5145 25.6862C15.2467 25.7313 15.8538 25.7535 16.3359 25.7528C16.8181 25.7521 17.4252 25.7299 18.1574 25.6862C18.8895 25.6425 19.5995 25.5213 20.2874 25.3228C20.9752 25.1243 21.5645 24.8287 22.0552 24.436C22.5459 24.0432 22.7913 23.5057 22.7913 22.8235C22.7913 22.5726 22.7599 22.3444 22.697 22.1387C22.6342 21.933 22.5495 21.7581 22.4431 21.6141C22.9074 21.9187 23.2556 22.286 23.4877 22.716C23.7199 23.146 23.8359 23.6207 23.8359 24.1403C23.8359 25.3766 23.1977 26.3129 21.9213 26.9493C20.6449 27.5857 18.7831 27.9035 16.3359 27.9028ZM16.3359 24.6778C14.6931 24.6778 13.3895 24.4854 12.4252 24.1006C11.4609 23.7157 10.9788 23.1915 10.9788 22.5278C10.9788 21.9007 11.4745 21.3858 12.4659 20.9831C13.4574 20.5803 14.7474 20.3785 16.3359 20.3778C17.9788 20.3778 19.2824 20.5706 20.2467 20.9562C21.2109 21.3417 21.6931 21.8656 21.6931 22.5278C21.6931 23.19 21.2109 23.7143 20.2467 24.1006C19.2824 24.4868 17.9788 24.6793 16.3359 24.6778ZM15.2645 19.3028V13.9278H13.1217L17.4074 6.40283V11.7778H19.5502L15.2645 19.3028Z" fill="#FCFCFC"/>
</svg>
