<svg width="33" height="33" viewBox="0 0 33 33" fill="none" xmlns="http://www.w3.org/2000/svg">
<rect x="0.666016" y="0.706055" width="32" height="32" rx="8" fill="#ECEDF9"/>
<path d="M17 27.647C14.5536 27.647 12.6921 27.3288 11.4157 26.6924C10.1393 26.056 9.50071 25.12 9.5 23.8845C9.5 23.3649 9.61607 22.8901 9.84821 22.4601C10.0804 22.0301 10.4286 21.6628 10.8929 21.3582C10.7857 21.5016 10.7011 21.6764 10.6389 21.8828C10.5768 22.0892 10.5454 22.3175 10.5446 22.5676C10.5446 23.2484 10.7904 23.7859 11.2818 24.1801C11.7732 24.5743 12.3625 24.8699 13.0496 25.067C13.7368 25.2641 14.4464 25.3852 15.1786 25.4303C15.9107 25.4755 16.5179 25.4977 17 25.497C17.4821 25.4963 18.0893 25.474 18.8214 25.4303C19.5536 25.3866 20.2636 25.2655 20.9514 25.067C21.6393 24.8685 22.2286 24.5728 22.7193 24.1801C23.21 23.7874 23.4554 23.2499 23.4554 22.5676C23.4554 22.3168 23.4239 22.0885 23.3611 21.8828C23.2982 21.6771 23.2136 21.5023 23.1071 21.3582C23.5714 21.6628 23.9196 22.0301 24.1518 22.4601C24.3839 22.8901 24.5 23.3649 24.5 23.8845C24.5 25.1207 23.8618 26.057 22.5854 26.6934C21.3089 27.3298 19.4471 27.6477 17 27.647ZM17 24.422C15.3571 24.422 14.0536 24.2295 13.0893 23.8447C12.125 23.4598 11.6429 22.9356 11.6429 22.272C11.6429 21.6449 12.1386 21.13 13.13 20.7272C14.1214 20.3244 15.4114 20.1227 17 20.122C18.6429 20.122 19.9464 20.3148 20.9107 20.7003C21.875 21.0859 22.3571 21.6098 22.3571 22.272C22.3571 22.9342 21.875 23.4584 20.9107 23.8447C19.9464 24.231 18.6429 24.4234 17 24.422ZM15.9286 19.047V13.672H13.7857L18.0714 6.14697V11.522H20.2143L15.9286 19.047Z" fill="#5567F2"/>
</svg>
