<svg width="40" height="41" viewBox="0 0 40 41" fill="none" xmlns="http://www.w3.org/2000/svg">
<path d="M20 38.451C15.9226 38.451 12.8202 37.9207 10.6929 36.86C8.56548 35.7993 7.50119 34.2394 7.5 32.1802C7.5 31.3142 7.69345 30.5229 8.08036 29.8062C8.46726 29.0895 9.04762 28.4774 9.82143 27.9698C9.64286 28.2086 9.50179 28.5001 9.39821 28.8441C9.29464 29.1881 9.24226 29.5685 9.24107 29.9854C9.24107 31.1201 9.6506 32.0159 10.4696 32.6729C11.2887 33.3298 12.2708 33.8225 13.4161 34.151C14.5613 34.4795 15.744 34.6813 16.9643 34.7566C18.1845 34.8318 19.1964 34.8689 20 34.8677C20.8036 34.8665 21.8155 34.8294 23.0357 34.7566C24.256 34.6837 25.4393 34.4819 26.5857 34.151C27.7321 33.8201 28.7143 33.3274 29.5321 32.6729C30.35 32.0183 30.7589 31.1225 30.7589 29.9854C30.7589 29.5673 30.7065 29.1869 30.6018 28.8441C30.497 28.5013 30.356 28.2098 30.1786 27.9698C30.9524 28.4774 31.5327 29.0895 31.9196 29.8062C32.3065 30.5229 32.5 31.3142 32.5 32.1802C32.5 34.2406 31.4363 35.8011 29.3089 36.8618C27.1815 37.9225 24.0786 38.4522 20 38.451ZM20 33.076C17.2619 33.076 15.0893 32.7553 13.4821 32.1139C11.875 31.4725 11.0714 30.5987 11.0714 29.4927C11.0714 28.4475 11.8976 27.5893 13.55 26.918C15.2024 26.2468 17.3524 25.9105 20 25.9093C22.7381 25.9093 24.9107 26.2306 26.5179 26.8733C28.125 27.5159 28.9286 28.389 28.9286 29.4927C28.9286 30.5963 28.125 31.4701 26.5179 32.1139C24.9107 32.7577 22.7381 33.0784 20 33.076ZM18.2143 24.1177V15.1593H14.6429L21.7857 2.61768V11.576H25.3571L18.2143 24.1177Z" fill="#0013A3"/>
</svg>
