<svg width="33" height="32" viewBox="0 0 33 32" fill="none" xmlns="http://www.w3.org/2000/svg">
<rect x="0.666016" width="32" height="32" rx="8" fill="#1F265C"/>
<path d="M17 26.9409C14.5536 26.9409 12.6921 26.6227 11.4157 25.9863C10.1393 25.3499 9.50071 24.4139 9.5 23.1784C9.5 22.6588 9.61607 22.184 9.84821 21.754C10.0804 21.324 10.4286 20.9567 10.8929 20.6522C10.7857 20.7955 10.7011 20.9704 10.6389 21.1768C10.5768 21.3832 10.5454 21.6114 10.5446 21.8615C10.5446 22.5424 10.7904 23.0799 11.2818 23.474C11.7732 23.8682 12.3625 24.1638 13.0496 24.3609C13.7368 24.558 14.4464 24.6791 15.1786 24.7243C15.9107 24.7694 16.5179 24.7916 17 24.7909C17.4821 24.7902 18.0893 24.768 18.8214 24.7243C19.5536 24.6805 20.2636 24.5594 20.9514 24.3609C21.6393 24.1624 22.2286 23.8668 22.7193 23.474C23.21 23.0813 23.4554 22.5438 23.4554 21.8615C23.4554 21.6107 23.4239 21.3825 23.3611 21.1768C23.2982 20.9711 23.2136 20.7962 23.1071 20.6522C23.5714 20.9567 23.9196 21.324 24.1518 21.754C24.3839 22.184 24.5 22.6588 24.5 23.1784C24.5 24.4147 23.8618 25.351 22.5854 25.9874C21.3089 26.6238 19.4471 26.9416 17 26.9409ZM17 23.7159C15.3571 23.7159 14.0536 23.5235 13.0893 23.1386C12.125 22.7538 11.6429 22.2295 11.6429 21.5659C11.6429 20.9388 12.1386 20.4239 13.13 20.0211C14.1214 19.6184 15.4114 19.4166 17 19.4159C18.6429 19.4159 19.9464 19.6087 20.9107 19.9943C21.875 20.3798 22.3571 20.9037 22.3571 21.5659C22.3571 22.2281 21.875 22.7524 20.9107 23.1386C19.9464 23.5249 18.6429 23.7174 17 23.7159ZM15.9286 18.3409V12.9659H13.7857L18.0714 5.44092V10.8159H20.2143L15.9286 18.3409Z" fill="#7081FF"/>
</svg>
