<svg width="120" height="120" viewBox="0 0 120 120" fill="none" xmlns="http://www.w3.org/2000/svg">
<rect width="120" height="120" fill="url(#paint0_linear_1648_450)"/>
<path fill-rule="evenodd" clip-rule="evenodd" d="M55.3153 68.548C55.3153 68.548 52.7689 69.8748 55.3153 74.17C57.8618 78.4652 63.1606 85.2117 77.7839 83.54C92.4072 81.8684 104.184 69.7567 103.997 53.5559C103.81 37.3551 96.9758 28.6035 90.8906 27.3198C85.2547 26.1298 81.6036 28.4573 79.6563 31.0678C79.6563 31.0678 76.3235 33.0805 74.0392 44.1859C71.7548 55.2912 65.9317 64.487 62.8049 66.674C60.6891 68.1507 58.4984 68.0532 55.3153 68.548Z" fill="#FCFCFC"/>
<path fill-rule="evenodd" clip-rule="evenodd" d="M39.2738 70.3248C40.4347 70.7895 42.6627 70.6658 44.0857 70.4222C44.0857 70.4222 47.5496 69.7082 45.9581 77.9183C44.3666 86.1283 40.4158 92.2432 34.7238 92.9103C29.0318 93.5775 25.3806 90.521 21.6171 85.4143C17.8537 80.3076 16 67.2982 16 61.0522C16 56.2941 16.5055 49.1485 21.6171 47.9341C21.6171 47.9341 24.7253 47.1451 27.2343 53.5561C29.7433 59.9671 32.7016 64.1555 34.7238 66.6742C36.746 69.1929 37.7197 69.7007 39.2738 70.3248Z" fill="#FCFCFC"/>
<defs>
<linearGradient id="paint0_linear_1648_450" x1="36" y1="5.0664e-07" x2="108.5" y2="120" gradientUnits="userSpaceOnUse">
<stop stop-color="#000E7A"/>
<stop offset="1" stop-color="#000529"/>
</linearGradient>
</defs>
</svg>
