<svg width="64" height="64" viewBox="0 0 64 64" fill="none" xmlns="http://www.w3.org/2000/svg">
<g clip-path="url(#clip0_824_39)">
<path fill-rule="evenodd" clip-rule="evenodd" d="M50.9151 30.7263L48.2382 28.2503L46.6321 24.8147L41.8138 16.2858L32.2949 11.4883L19.8635 12.5544C16.4639 14.6776 13.3748 17.2634 10.7622 20.5502L7.01462 28.013C6.415 31.3713 6.90217 34.7909 8.13353 38.2525C9.50408 42.3757 11.5921 45.2084 14.2689 46.992C16.6567 49.7047 20.2222 50.8279 24.1465 51.4675H33.7832L40.2077 48.8023L48.2382 51.499L50.9151 50.9345L53.592 49.3353V46.67L55.7335 45.6039L57.3396 44.0048L57.5751 41.8725L56.8042 40.2734L53.592 38.1411L54.4861 36.4689L54.1273 32.6336L50.9151 30.7263Z" fill="#FAFCFF"/>
<path fill-rule="evenodd" clip-rule="evenodd" d="M56.0911 37.7887C57.4632 38.4104 58.5571 39.6156 58.9784 41.1775C59.7256 43.948 58.0776 46.7975 55.2995 47.5371C55.1311 47.5819 54.9642 47.6177 54.799 47.6449C55.3927 50.3408 53.7623 53.0521 51.0611 53.7713C49.7764 54.1133 48.4716 53.9446 47.3688 53.3904C47.3228 53.3651 47.2726 53.339 47.2291 53.3087C47.0576 53.1963 46.8833 53.0886 46.7063 52.9851C43.98 51.3855 40.9668 50.7296 37.6762 51.6056C36.5123 51.9154 34.7141 52.7392 32.8694 53.2303C20.9994 56.3904 8.77408 49.3458 5.58183 37.5098C2.38958 25.6738 9.43146 13.4997 21.3015 10.3397C29.0098 8.28751 36.8705 10.5382 42.307 15.6117C45.2424 18.3501 47.47 21.9111 48.589 26.0602C49.1597 28.1762 50.7773 29.7373 52.7332 30.3421C52.8274 30.3714 52.9248 30.3979 53.018 30.4236C53.0518 30.4322 53.0857 30.4415 53.1199 30.452C54.7204 30.9899 56.0326 32.2919 56.504 34.0396C56.857 35.3485 56.6735 36.6751 56.0911 37.7887ZM53.3563 40.2303C53.2069 40.2873 53.0558 40.3381 52.899 40.3822C52.1736 40.587 51.4116 40.1909 51.1646 39.4789C50.9178 38.7673 51.2727 37.9885 51.9729 37.7047C52.1214 37.6444 52.2719 37.5915 52.4279 37.5445C53.4806 37.0842 54.0632 35.9131 53.7552 34.7714C53.5451 33.9921 52.9677 33.4079 52.2599 33.1543C52.1374 33.1219 52.0144 33.0878 51.8944 33.0501C49.0355 32.1665 46.6777 29.8827 45.8439 26.791C44.868 23.1726 42.9243 20.0678 40.3657 17.6794C35.6217 13.2536 28.764 11.2887 22.0402 13.0787C11.6892 15.8344 5.54239 26.4545 8.32697 36.779C11.1116 47.1034 21.7796 53.247 32.1307 50.4913C33.9754 50.0001 35.7737 49.1767 36.9376 48.8669C41.0187 47.7804 44.7631 48.5581 48.1464 50.5423C48.3373 50.6538 48.5254 50.7696 48.7112 50.8911C49.1996 51.1167 49.766 51.1803 50.3224 51.0322C51.5851 50.696 52.3343 49.4011 51.9949 48.1426C51.8639 47.6571 51.5887 47.2476 51.2291 46.947C51.0596 46.8419 50.8954 46.728 50.7368 46.6051C50.146 46.1458 50.0148 45.3099 50.4329 44.6931C50.8512 44.0767 51.6793 43.8891 52.326 44.265C52.4983 44.3655 52.6653 44.4756 52.8269 44.5949C53.3405 44.8701 53.9532 44.9601 54.5608 44.7983C55.8236 44.4622 56.5728 43.1673 56.2332 41.9084C55.8961 40.6582 54.6117 39.9105 53.3563 40.2303Z" fill="#0018FF"/>
<path fill-rule="evenodd" clip-rule="evenodd" d="M19.6943 33.1301C19.6943 33.1301 19.1341 33.4206 19.6943 34.3607C20.2546 35.3008 21.4205 36.7775 24.6379 36.4116C27.8553 36.0457 30.4466 33.3947 30.4054 29.8487C30.3642 26.3027 28.8605 24.3871 27.5216 24.1061C26.2816 23.8457 25.4783 24.3551 25.0499 24.9265C25.0499 24.9265 24.3166 25.367 23.814 27.7978C23.3114 30.2285 22.0302 32.2413 21.3422 32.72C20.8767 33.0432 20.3947 33.0219 19.6943 33.1301Z" fill="#0018FF"/>
<path fill-rule="evenodd" clip-rule="evenodd" d="M16.1637 33.5189C16.4191 33.6207 16.9093 33.5936 17.2224 33.5403C17.2224 33.5403 17.9846 33.384 17.6344 35.181C17.2842 36.978 16.415 38.3164 15.1626 38.4625C13.9102 38.6085 13.1069 37.9395 12.2789 36.8217C11.4508 35.704 11.043 32.8565 11.043 31.4893C11.043 30.4479 11.1542 28.8839 12.2789 28.6181C12.2789 28.6181 12.9627 28.4454 13.5148 29.8486C14.0668 31.2518 14.7177 32.1686 15.1626 32.7199C15.6075 33.2712 15.8218 33.3823 16.1637 33.5189Z" fill="#0018FF"/>
</g>
<defs>
<clipPath id="clip0_824_39">
<rect width="54.4" height="44.4267" fill="white" transform="translate(4.7998 9.6001)"/>
</clipPath>
</defs>
</svg>
