<svg width="600" height="600" viewBox="0 0 600 600" fill="none" xmlns="http://www.w3.org/2000/svg">
<rect width="600" height="600" rx="32" fill="url(#paint0_linear_743_117)"/>
<g clip-path="url(#clip0_743_117)">
<path fill-rule="evenodd" clip-rule="evenodd" d="M435.952 290.845L416.712 273.048L405.168 248.355L370.536 187.053L302.119 152.571L212.769 160.234C188.334 175.494 166.131 194.08 147.353 217.704L120.417 271.343C116.108 295.481 119.609 320.059 128.46 344.939C138.31 374.575 153.318 394.935 172.558 407.754C189.72 427.252 215.347 435.325 243.553 439.922H312.817L358.992 420.766L416.712 440.148L435.952 436.091L455.192 424.597V405.44L470.584 397.777L482.128 386.283L483.821 370.958L478.28 359.464L455.192 344.139L461.618 332.12L459.04 304.553L435.952 290.845Z" fill="#FAFCFF"/>
<path fill-rule="evenodd" clip-rule="evenodd" d="M473.155 341.604C483.017 346.073 490.879 354.736 493.907 365.962C499.278 385.874 487.432 406.355 467.465 411.671C466.255 411.993 465.055 412.25 463.867 412.446C468.135 431.823 456.417 451.31 437.001 456.479C427.768 458.938 418.389 457.725 410.463 453.742C410.132 453.56 409.772 453.372 409.459 453.154C408.226 452.347 406.974 451.572 405.702 450.828C386.106 439.331 364.448 434.617 340.798 440.913C332.432 443.14 319.508 449.061 306.249 452.591C220.933 475.304 133.064 424.671 110.119 339.6C87.1749 254.529 137.788 167.028 223.104 144.314C278.508 129.565 335.006 145.741 374.081 182.208C395.18 201.89 411.19 227.484 419.233 257.306C423.335 272.515 434.962 283.735 449.02 288.082C449.697 288.293 450.397 288.483 451.067 288.667C451.309 288.73 451.553 288.797 451.799 288.872C463.302 292.738 472.734 302.096 476.122 314.658C478.66 324.066 477.341 333.601 473.155 341.604ZM453.498 359.153C452.424 359.563 451.338 359.928 450.211 360.245C444.997 361.717 439.521 358.87 437.746 353.753C435.971 348.638 438.522 343.041 443.555 341.001C444.622 340.568 445.704 340.187 446.825 339.849C454.392 336.541 458.579 328.124 456.366 319.917C454.855 314.316 450.705 310.118 445.618 308.295C444.737 308.062 443.853 307.817 442.991 307.546C422.443 301.195 405.496 284.78 399.503 262.559C392.488 236.552 378.518 214.235 360.128 197.069C326.031 165.258 276.741 151.136 228.414 164.002C154.016 183.808 109.836 260.14 129.85 334.347C149.864 408.554 226.541 452.711 300.939 432.904C314.198 429.374 327.123 423.456 335.489 421.229C364.822 413.42 391.735 419.01 416.052 433.271C417.424 434.073 418.776 434.905 420.111 435.778C423.622 437.4 427.693 437.857 431.692 436.792C440.768 434.376 446.153 425.069 443.713 416.023C442.772 412.534 440.794 409.59 438.209 407.43C436.99 406.675 435.811 405.855 434.67 404.972C430.424 401.671 429.481 395.663 432.486 391.23C435.493 386.799 441.445 385.451 446.093 388.153C447.331 388.875 448.532 389.666 449.693 390.524C453.385 392.502 457.789 393.149 462.156 391.986C471.232 389.57 476.617 380.263 474.176 371.214C471.753 362.229 462.521 356.855 453.498 359.153Z" fill="#0013A3"/>
<path fill-rule="evenodd" clip-rule="evenodd" d="M211.552 308.12C211.552 308.12 207.525 310.207 211.552 316.965C215.579 323.722 223.959 334.335 247.084 331.706C270.209 329.076 288.834 310.022 288.538 284.535C288.242 259.047 277.434 245.279 267.811 243.26C258.898 241.388 253.124 245.049 250.045 249.156C250.045 249.156 244.774 252.323 241.162 269.794C237.549 287.265 228.341 301.731 223.396 305.172C220.05 307.495 216.586 307.342 211.552 308.12Z" fill="#0013A3"/>
<path fill-rule="evenodd" clip-rule="evenodd" d="M186.176 310.915C188.012 311.646 191.536 311.452 193.786 311.068C193.786 311.068 199.264 309.945 196.747 322.861C194.23 335.777 187.982 345.397 178.981 346.447C169.98 347.496 164.206 342.688 158.254 334.654C152.302 326.62 149.371 306.154 149.371 296.327C149.371 288.842 150.171 277.6 158.254 275.69C158.254 275.69 163.169 274.449 167.137 284.535C171.105 294.62 175.783 301.21 178.981 305.172C182.179 309.134 183.719 309.933 186.176 310.915Z" fill="#0013A3"/>
</g>
<defs>
<linearGradient id="paint0_linear_743_117" x1="600" y1="0" x2="0" y2="600" gradientUnits="userSpaceOnUse">
<stop stop-color="#001EFF"/>
<stop offset="1" stop-color="#0013A3"/>
</linearGradient>
<clipPath id="clip0_743_117">
<rect width="391" height="319.317" fill="white" transform="translate(104.499 139)"/>
</clipPath>
</defs>
</svg>
