<svg width="1343" xmlns="http://www.w3.org/2000/svg" height="286" fill="none"><g style="fill: rgb(0, 0, 0);" xml:space="preserve"><g style="fill: rgb(0, 0, 0);"><path d="M0 285.42V16.358C0 7.591 7.097.484 15.852.484h64.079V285.42H0Zm64.743-101.246v-66.432h125.429l-25.283 66.432H64.743Zm0-117.258V.484h145.872v66.432H64.743ZM134.203 285.42S213.931 75.686 236.578 16.101C240.154 6.697 249.147.484 259.188.484h48.11a24.188 24.188 0 0 1 22.647 15.7C352.374 75.882 431.149 285.42 431.149 285.42h-83.145L268.471 43.306h28.786l-81.52 242.114h-81.534Zm70.338-48.022v-62.429h159.066v62.429H204.541Z" style="fill-rule: nonzero; clip-rule: evenodd; stroke-linejoin: round; stroke-miterlimit: 2; fill: rgb(250, 252, 255); fill-opacity: 1;" class="fills"/><path d="M471.353 139.579v140.868c0 1.317-.542 2.583-1.445 3.516a5.006 5.006 0 0 1-3.54 1.457h-74.946V.484h46.124a20.328 20.328 0 0 1 15.928 7.7c24.452 30.756 113.774 143.172 113.774 143.172V.484h74.982c2.745 0 4.948 2.228 4.948 4.98V285.42h-52.733a14.972 14.972 0 0 1-11.702-5.652c-21.31-26.847-111.39-140.189-111.39-140.189Z" style="fill-rule: evenodd; clip-rule: evenodd; stroke-linejoin: round; stroke-miterlimit: 2; fill: rgb(250, 252, 255); fill-opacity: 1;" class="fills"/><path d="M655.557 68.519H530.732c-4.01 0-7.261-3.248-7.261-7.252V.484h373.07c2.167 0 3.937 1.773 3.937 3.96v7.646c-5.31-.617-10.652-1.13-16.004-.567-8.872.931-16.248 5.411-24.634 7.646-5.375 1.433-10.996 2.318-16.159 4.466-6.573 2.735-12.377 7.15-18.097 11.23-4.142 2.954-8.893 5.15-12.905 8.305-5.152 4.051-9.731 9.143-14.375 13.778a113.207 113.207 0 0 0-10.134 11.571h-52.682V285.42h-79.931V68.519ZM1119.535 151.102V285.42h-79.137v-3.532c1.059-.382 2.092-.758 2.857-1.199 4.784-2.757 9.282-8.527 12.709-12.85 2.278-2.872 6.049-4.357 7.211-8.139 1.074-3.49 3.401-8.107 2.42-12.036-.321-1.284-1.782-6.73-1.155-7.788.375-.631 2.112-.172 2.749-.392 1.85-.639 4.68-1.254 6.102-2.665 2.545-2.526 6.279-3.857 9.424-5.421 7.994-3.972 10.53-12.066 9.843-20.376-.228-2.753-.823-5.65-1.65-8.283-1.846-5.872-8.796-12.301-13.724-15.595-1.031-.687-4.736-.765-5.211-1.325-.652-.763 2.178-4.963 2.347-5.863.875-4.681 2.45-10.699 1.226-15.605-1.284-5.145-2.199-10.449-5.196-15.129-2.303-3.596-6.23-5.601-9.576-8.008-4.635-3.333-9.179-6.543-14.166-9.372-2.061-1.169-4.242-2.71-6.21-3.855V.484h50.314c4.804 0 9.283 2.366 11.955 6.323 14.998 21.987 65.257 95.67 88.99 130.461a863694.483 863694.483 0 0 1 88.641-130.44c2.674-3.967 7.187-6.344 11.956-6.344h50.313V285.42h-72.417a6.77 6.77 0 0 1-4.768-1.978c-1.265-1.265-1.95-2.984-1.95-4.773V151.598a371424.785 371424.785 0 0 0-44.679 64.165 5.628 5.628 0 0 1-4.623 2.426h-45.257a5.67 5.67 0 0 1-4.659-2.442c-6.513-9.413-30.339-43.891-44.679-64.645Z" style="fill-rule: evenodd; clip-rule: evenodd; stroke-linejoin: round; stroke-miterlimit: 2; fill: rgb(250, 252, 255); fill-opacity: 1;" class="fills"/></g><g style="fill: rgb(0, 0, 0);"><path d="M1077.087 181.239c8.781 3.992 15.778 11.737 18.465 21.78 4.767 17.815-5.802 36.152-23.592 40.926-1.079.289-2.147.52-3.206.696 3.785 17.336-6.67 34.785-23.968 39.426a33.229 33.229 0 0 1-23.637-2.427c-.295-.163-.616-.33-.894-.525a77.928 77.928 0 0 0-3.345-2.079c-17.446-10.272-36.734-14.473-57.806-8.819-7.454 2-18.971 7.309-30.785 10.479-76.016 20.396-154.244-24.842-174.61-100.95-20.365-76.109 24.794-154.453 100.809-174.849 49.365-13.244 99.678 1.185 134.454 33.785 18.777 17.596 33.017 40.486 40.156 67.166 3.641 13.606 13.987 23.638 26.506 27.516.603.188 1.227.358 1.823.522.216.056.433.116.652.183 10.244 3.45 18.638 11.816 21.645 23.054 2.252 8.417 1.069 16.951-2.667 24.116Zm-17.524 15.721c-.957.367-1.924.695-2.929.979-4.645 1.322-9.521-1.221-11.098-5.799-1.576-4.576.701-9.586 5.185-11.416.952-.389 1.915-.73 2.914-1.033 6.743-2.967 10.48-10.503 8.516-17.844a15.202 15.202 0 0 0-9.564-10.393 53.224 53.224 0 0 1-2.34-.667c-18.298-5.667-33.379-20.342-38.699-40.222-6.226-23.267-18.651-43.226-35.018-58.573-30.346-28.438-74.24-41.035-117.299-29.482-66.288 17.786-105.707 86.13-87.942 152.519 17.765 66.389 86.029 105.84 152.317 88.054 11.814-3.17 23.332-8.476 30.786-10.476 26.135-7.013 50.103-2.033 71.752 10.709a83.373 83.373 0 0 1 3.614 2.241 15.141 15.141 0 0 0 10.315.897c8.086-2.169 12.891-10.502 10.725-18.595a15.096 15.096 0 0 0-4.895-7.685 36.827 36.827 0 0 1-3.15-2.196c-3.779-2.951-4.615-8.327-1.934-12.296a9.1 9.1 0 0 1 12.123-2.765 35.219 35.219 0 0 1 3.205 2.119c3.287 1.767 7.209 2.342 11.1 1.298 8.087-2.17 12.892-10.503 10.725-18.598-2.151-8.039-10.369-12.84-18.409-10.776Z" style="fill-rule: evenodd; clip-rule: evenodd; stroke-linejoin: round; stroke-miterlimit: 2; fill: rgb(250, 252, 255); fill-opacity: 1;" class="fills"/><g style="fill: rgb(0, 0, 0);"><path d="M844.125 151.424s-3.586 1.869 0 7.92c3.585 6.05 11.045 15.553 31.633 13.198 20.588-2.355 37.17-19.415 36.906-42.235-.264-22.82-9.886-35.147-18.453-36.955-7.935-1.677-13.075 1.602-15.817 5.279 0 0-4.692 2.835-7.908 18.478-3.216 15.642-11.415 28.595-15.817 31.676-2.979 2.08-6.063 1.943-10.544 2.639ZM821.533 153.927c1.634.655 4.771.48 6.775.137 0 0 4.877-1.006 2.636 10.559-2.241 11.564-7.803 20.178-15.817 21.117-8.014.94-13.154-3.365-18.453-10.558-5.298-7.194-7.908-25.518-7.908-34.316 0-6.702.712-16.768 7.908-18.478 0 0 4.376-1.111 7.909 7.919 3.532 9.03 7.697 14.93 10.544 18.478 2.847 3.548 4.218 4.263 6.406 5.142Z" style="fill-rule: evenodd; clip-rule: evenodd; stroke-linejoin: round; stroke-miterlimit: 2; fill: rgb(250, 252, 255); fill-opacity: 1;" class="fills"/></g></g></g></svg>